<svg xmlns="http://www.w3.org/2000/svg" viewBox="0 0 749.23 50.68"><defs><style>.cls-1{fill:#fff;}</style></defs><title>cbs_cf16_2days</title><g id="Layer_2" data-name="Layer 2"><g id="Layer_1-2" data-name="Layer 1"><path class="cls-1" d="M14.66,0a48,48,0,0,1,8.58.61A12.79,12.79,0,0,1,28,2.31a4.94,4.94,0,0,1,2.06,2.74,13.64,13.64,0,0,1,.46,3.7v1.71a18.69,18.69,0,0,1-.32,3.7A9.29,9.29,0,0,1,29.15,17a13.81,13.81,0,0,1-1.89,2.49q-1.14,1.21-2.85,2.78L6.48,38.72,5.05,41H30.68v9.25H0V46.77l17.65-27.9a17.3,17.3,0,0,0,2.24-4.8,18.6,18.6,0,0,0,.53-4.59V6.33a12.69,12.69,0,0,0-.21-2.53,3.75,3.75,0,0,0-.75-1.67,2.81,2.81,0,0,0-1.53-.89A10.86,10.86,0,0,0,15.38,1a30.06,30.06,0,0,0-4.77.28L7.76,13.74H1.85V1.21L5.91.64Q7.76.43,10,.21T14.66,0Z"/><path class="cls-1" d="M49.19,49.26h5.62V1.42H49.19v-1H77.66q4.7,0,6.94,2.63a10.18,10.18,0,0,1,2.24,6.83V40.79a10.15,10.15,0,0,1-2.24,6.87q-2.24,2.6-6.94,2.6H49.19Zm22.64,0A4.56,4.56,0,0,0,75,48.4a4.18,4.18,0,0,0,.89-3.06V5.27a4.06,4.06,0,0,0-.89-3,4.56,4.56,0,0,0-3.17-.85H65.77V49.26Z"/><path class="cls-1" d="M110.61,49.26h5.05l-3.06-17.08H99.22L96.09,49.26h4.63v1H89.47v-1H95L104,.43h14.09l9.25,48.83h4.84v1H110.61ZM99.44,31.18h13L107,1.42h-2.14Z"/><path class="cls-1" d="M159,.43h11v1h-5.2L156.1,26.48V49.26h5.62v1H139.51v-1h5.62v-19L134.32,1.42h-5.62v-1h22.14v1H146l8.54,22.92h1l8-22.92H159Z"/><path class="cls-1" d="M188.06,49.68q3.56,0,4.8-1.21t1.25-4.27V41.29q0-1.78-.11-3a8,8,0,0,0-.46-2.17,5.06,5.06,0,0,0-1.07-1.67,13.2,13.2,0,0,0-1.92-1.6l-10.39-7q-1.64-1.14-3-2.14a11.93,11.93,0,0,1-2.38-2.24,9.51,9.51,0,0,1-1.57-2.92,12.52,12.52,0,0,1-.57-4V9.61a12.55,12.55,0,0,1,.68-4.38,6,6,0,0,1,2.49-3,13.28,13.28,0,0,1,5-1.71A50.17,50.17,0,0,1,188.84,0q2.35,0,4.73.21T198,.64l4.41.57V15.66h-6.83L192.26,1.21A16.94,16.94,0,0,0,190.33,1q-1,0-2.21,0a9.58,9.58,0,0,0-2.71.32,3.7,3.7,0,0,0-1.67,1,3.34,3.34,0,0,0-.82,1.64,11.73,11.73,0,0,0-.21,2.42V9.89a14.48,14.48,0,0,0,.18,2.49,5.19,5.19,0,0,0,.68,1.82,6.17,6.17,0,0,0,1.35,1.53,21,21,0,0,0,2.21,1.57l10.75,7a22.25,22.25,0,0,1,2.88,2.1,10.42,10.42,0,0,1,2,2.28,9,9,0,0,1,1.14,2.81,17.31,17.31,0,0,1,.36,3.77v5.05q0,5.48-3.91,7.9t-13,2.42q-2.63,0-5.16-.21t-4.59-.57q-2.35-.28-4.63-.78V33.46h6.83l3.27,15.94a16.68,16.68,0,0,0,2.46.25Q186.77,49.69,188.06,49.68Z"/><path class="cls-1" d="M222.08,27h21.35v4H222.08Z"/><path class="cls-1" d="M261.94.43h13.52a10.94,10.94,0,0,1,3.84.57,5.53,5.53,0,0,1,2.35,1.6,6.13,6.13,0,0,1,1.21,2.53,14.48,14.48,0,0,1,.36,3.35V42.21a14,14,0,0,1-.36,3.31A6.42,6.42,0,0,1,281.65,48a5.37,5.37,0,0,1-2.35,1.64,10.94,10.94,0,0,1-3.84.57H261.94Zm12.67,46a4.56,4.56,0,0,0,3.17-.85,4.17,4.17,0,0,0,.89-3.06V8.12a4.06,4.06,0,0,0-.89-3,4.56,4.56,0,0,0-3.17-.85h-8.11V46.41Z"/><path class="cls-1" d="M291.62,24.91V.43h4.56V50.25h-4.56Z"/><path class="cls-1" d="M304.57.43h16.37V4.27H309.13V22.42h11.46v3.84H309.13v24h-4.56Z"/><path class="cls-1" d="M328.13.43H344.5V4.27H332.69V22.42h11.46v3.84H332.69v24h-4.56Z"/><path class="cls-1" d="M351.69.43h17.08V4.27H356.25V22.42h12.17v3.84H356.25V46.41h12.53v3.84H351.69Z"/><path class="cls-1" d="M376.25.43h12a17.41,17.41,0,0,1,3.17.28,7.58,7.58,0,0,1,2.71,1,5.64,5.64,0,0,1,1.89,2,6.18,6.18,0,0,1,.71,3.1V20.22a6.83,6.83,0,0,1-.53,2.78,6.71,6.71,0,0,1-1.39,2.06,7.9,7.9,0,0,1-1.85,1.39,10.89,10.89,0,0,1-1.92.82l6,23h-4.63l-5.77-22.56h-5.77V50.25h-4.56ZM388,23.85a6,6,0,0,0,2.88-.68q1.25-.68,1.25-2.88V7.69a3.46,3.46,0,0,0-.39-1.74,3,3,0,0,0-1-1.07,3.7,3.7,0,0,0-1.46-.5,12.92,12.92,0,0,0-1.67-.11h-6.76V23.85Z"/><path class="cls-1" d="M404.79.43h17.08V4.27H409.35V22.42h12.17v3.84H409.35V46.41h12.53v3.84H404.79Z"/><path class="cls-1" d="M449.35.43h4.13V50.25h-8.26l-10.54-46h-1.21v46h-4.13V.43h8.19l10.75,46h1.07Z"/><path class="cls-1" d="M468.07,4.27h-8V.43h20.5V4.27h-8v46h-4.56Z"/><path class="cls-1" d="M515.41,7a2.64,2.64,0,0,0-1.28-2.42,8.05,8.05,0,0,0-4.06-.78q-5.34,0-5.34,3.2V43.63q0,3.2,5.34,3.2a8,8,0,0,0,4.06-.78,2.64,2.64,0,0,0,1.28-2.42V33.1H520V43.78a6,6,0,0,1-2.46,5.05q-2.46,1.85-7.44,1.85t-7.44-1.85a6,6,0,0,1-2.46-5.05V6.91a6,6,0,0,1,2.46-5.05Q505.09,0,510.07,0t7.44,1.85A6,6,0,0,1,520,6.91V17h-4.55Z"/><path class="cls-1" d="M527.86,8.4A9.63,9.63,0,0,1,528.43,5a6.64,6.64,0,0,1,1.85-2.67A8.59,8.59,0,0,1,533.67.61a21.69,21.69,0,0,1,10.18,0,8.6,8.6,0,0,1,3.38,1.74A6.63,6.63,0,0,1,549.08,5a9.63,9.63,0,0,1,.57,3.38V42.21a9.91,9.91,0,0,1-.57,3.42,6.32,6.32,0,0,1-1.85,2.67A9.26,9.26,0,0,1,543.84,50a20.54,20.54,0,0,1-10.18,0,9.25,9.25,0,0,1-3.38-1.74,6.32,6.32,0,0,1-1.85-2.67,9.91,9.91,0,0,1-.57-3.42Zm4.56,33.74a4.51,4.51,0,0,0,1.35,3.38q1.35,1.32,5,1.32t4.95-1.32A4.58,4.58,0,0,0,545,42.14V8.54a4.58,4.58,0,0,0-1.32-3.38q-1.32-1.32-4.95-1.32t-5,1.32a4.51,4.51,0,0,0-1.35,3.38Z"/><path class="cls-1" d="M584.5.43h9.34V50.25h-4.27v-46H587.8l-8.17,46H572.4l-8.31-46h-1.77v46H558V.43h9.27l7.85,45.27h1.57Z"/><path class="cls-1" d="M602.18.43h12a17.41,17.41,0,0,1,3.17.28,7.58,7.58,0,0,1,2.71,1,5.64,5.64,0,0,1,1.89,2,6.18,6.18,0,0,1,.71,3.1V20.22a7.16,7.16,0,0,1-2.13,5.45,8,8,0,0,1-5.77,2h-8V50.25h-4.56Zm11.75,23.42a6,6,0,0,0,2.88-.68q1.25-.68,1.25-2.88V7.69a3.46,3.46,0,0,0-.39-1.74,3,3,0,0,0-1-1.07,3.7,3.7,0,0,0-1.46-.5,12.92,12.92,0,0,0-1.67-.11h-6.76V23.85Z"/><path class="cls-1" d="M645.88,35H633.14l-2.21,15.23h-4.56l8-49.83h10.32l8,49.83h-4.56ZM641.11,4.27H638l-4.2,26.91h11.46Z"/><path class="cls-1" d="M679.69.43h4.13V50.25h-8.26L665,4.27h-1.21v46h-4.13V.43h8.19l10.75,46h1.07Z"/><path class="cls-1" d="M692.22,24.91V.43h4.56V50.25h-4.56Z"/><path class="cls-1" d="M705.17.43h17.08V4.27H709.73V22.42H721.9v3.84H709.73V46.41h12.53v3.84H705.17Z"/><path class="cls-1" d="M744.54,7.26a3.07,3.07,0,0,0-1.17-2.42q-1.17-1-4.16-1t-4.24,1a3.07,3.07,0,0,0-1.17,2.42V13a9.23,9.23,0,0,0,.32,2.92,4.91,4.91,0,0,0,1.17,1.71l11.25,11a13.06,13.06,0,0,1,1.92,2.42,7.34,7.34,0,0,1,.78,3.77v8.47a6.33,6.33,0,0,1-2.56,5.48q-2.56,1.85-7.47,1.85-5.2,0-7.72-1.74t-2.53-5.59V33.67h4.55v9.4a3.25,3.25,0,0,0,1.35,2.78,7.42,7.42,0,0,0,4.34,1,7,7,0,0,0,4.13-1,3.25,3.25,0,0,0,1.35-2.78V35.38a7.25,7.25,0,0,0-.39-2.71A5.25,5.25,0,0,0,743,30.89l-10.46-9.75a12.72,12.72,0,0,1-2.38-3,9.79,9.79,0,0,1-.89-4.66V7.33q0-7.33,10-7.33,5.34,0,7.62,1.78A6.2,6.2,0,0,1,749.09,7v9.18h-4.56Z"/></g></g></svg>