<svg xmlns="http://www.w3.org/2000/svg" viewBox="0 0 583.86 560.5"><defs><style>.cls-1{fill:#fff;}.cls-2{fill:#f37160;}</style></defs><title>cbs_cf16_logo_dato</title><g id="Layer_2" data-name="Layer 2"><g id="Layer_1-2" data-name="Layer 1"><path class="cls-1" d="M42.43,2.41q-6.21,0-8.45,1.9t-2.24,5.86V112.63q0,4,2.24,5.86t9,1.9a56.38,56.38,0,0,0,14.75-1.64A22.94,22.94,0,0,0,67.1,114a17.3,17.3,0,0,0,4.92-7.5,31.3,31.3,0,0,0,1.47-9.92V80.21h2.76V96.94a34.62,34.62,0,0,1-1.47,10.26,18.17,18.17,0,0,1-5.26,8.19,26.62,26.62,0,0,1-10.26,5.43,56.6,56.6,0,0,1-16.3,2,105.59,105.59,0,0,1-19.66-1.47,35.14,35.14,0,0,1-11.47-4,12.27,12.27,0,0,1-5.35-5.86,19.77,19.77,0,0,1-1.29-7.16V18.46A21,21,0,0,1,6.38,11.3a11.78,11.78,0,0,1,5.26-5.86q4.05-2.5,11.56-4A108.28,108.28,0,0,1,43.12,0q5.69,0,11.64.52t11,1L77.1,2.93v35H60.54L52.61,3.1A61.55,61.55,0,0,0,42.43,2.41Z"/><path class="cls-1" d="M85.72,119.36H99.35V3.45H85.72V1h69Q165.07,1,171,5.17t6,13.28V40.36q0,7.24-2.76,11.38t-9,6v1.72q12.59,3.62,12.59,15.7v27.43q0,9-6.21,14.06t-16.9,5.09h-69Zm54.16-61.58a14.4,14.4,0,0,0,7-1.64q3-1.64,3-7V11.73a8.39,8.39,0,0,0-.95-4.23,7.23,7.23,0,0,0-2.5-2.59,9,9,0,0,0-3.54-1.21,31.35,31.35,0,0,0-4.05-.26H125.91V57.78Zm-.69,61.58a33.37,33.37,0,0,0,4.14-.26,9,9,0,0,0,3.62-1.21,7.18,7.18,0,0,0,2.5-2.59,8.38,8.38,0,0,0,.95-4.23V67.61q0-4.31-3.36-5.86a16.88,16.88,0,0,0-7.16-1.55h-14v59.16Z"/><path class="cls-1" d="M231.65,120.4q8.62,0,11.64-2.93t3-10.35V100q0-4.31-.26-7.33a19.31,19.31,0,0,0-1.12-5.26,12.24,12.24,0,0,0-2.59-4.05,31.89,31.89,0,0,0-4.66-3.88L212.5,62.61q-4-2.76-7.33-5.17A28.92,28.92,0,0,1,199.39,52a23.05,23.05,0,0,1-3.79-7.07,30.35,30.35,0,0,1-1.38-9.75V23.29a30.42,30.42,0,0,1,1.64-10.61,14.65,14.65,0,0,1,6-7.24q4.4-2.85,12.07-4.14A121.47,121.47,0,0,1,233.54,0q5.69,0,11.47.52t10.61,1q5.52.69,10.69,1.38v35H249.76l-7.93-35a40.63,40.63,0,0,0-4.66-.43q-2.42-.08-5.35-.09a23.23,23.23,0,0,0-6.55.78,9,9,0,0,0-4.05,2.33,8.11,8.11,0,0,0-2,4,28.46,28.46,0,0,0-.52,5.86V24a35.15,35.15,0,0,0,.43,6,12.57,12.57,0,0,0,1.64,4.4,15,15,0,0,0,3.28,3.71,50.85,50.85,0,0,0,5.35,3.79l26,17.08a54,54,0,0,1,7,5.09,25.32,25.32,0,0,1,4.74,5.52,21.87,21.87,0,0,1,2.76,6.81,41.92,41.92,0,0,1,.86,9.14V97.8q0,13.28-9.49,19.15t-31.39,5.86q-6.38,0-12.5-.52t-11.13-1.38q-5.69-.69-11.21-1.9V81.07h16.56l7.93,38.64a40.81,40.81,0,0,0,6,.6Q228.54,120.4,231.65,120.4Z"/><path class="cls-1" d="M42.43,173.52q-6.21,0-8.45,1.9t-2.24,5.86V283.74q0,4,2.24,5.86t9,1.9a56.36,56.36,0,0,0,14.75-1.64,23,23,0,0,0,9.4-4.74,17.3,17.3,0,0,0,4.92-7.5,31.3,31.3,0,0,0,1.47-9.92V251.31h2.76V268a34.62,34.62,0,0,1-1.47,10.26,18.17,18.17,0,0,1-5.26,8.19,26.63,26.63,0,0,1-10.26,5.43,56.62,56.62,0,0,1-16.3,2,105.58,105.58,0,0,1-19.66-1.47,35.15,35.15,0,0,1-11.47-4,12.26,12.26,0,0,1-5.35-5.86,19.77,19.77,0,0,1-1.29-7.16v-85.9a21,21,0,0,1,1.21-7.16,11.78,11.78,0,0,1,5.26-5.86q4.05-2.5,11.56-4a108.26,108.26,0,0,1,19.92-1.47q5.69,0,11.64.52t11,1L77.1,174v35H60.54l-7.93-34.84A61.44,61.44,0,0,0,42.43,173.52Z"/><path class="cls-1" d="M128.33,290.47h12.25l-7.42-41.4H100.73l-7.59,41.4h11.21v2.42H77.1v-2.42H90.38l21.91-118.33h34.15l22.42,118.33h11.73v2.42H128.33Zm-27.08-43.81h31.39l-13.11-72.1h-5.17Z"/><path class="cls-1" d="M180.59,290.47h13.63V174.56H180.59v-2.42h68.13a43.12,43.12,0,0,1,8.8.86,18.78,18.78,0,0,1,7.07,2.93,14.24,14.24,0,0,1,4.66,5.78,22.35,22.35,0,0,1,1.73,9.4v21q0,10.52-5.43,16t-15.44,5.52H234.75l1,3.79q1.38,4.31,5,4.48h21l12.07,48.47h9.66v2.42H253.21a7.24,7.24,0,0,1-5.17-1.64,10,10,0,0,1-2.59-4.4L232,233.72H220.78v56.75H231v2.42H180.59Zm53.3-59.16a14.4,14.4,0,0,0,7-1.64q3-1.64,3-7V182.84a8.39,8.39,0,0,0-.95-4.23,7.23,7.23,0,0,0-2.5-2.59,8.93,8.93,0,0,0-3.54-1.21,31.27,31.27,0,0,0-4.05-.26H220.78v56.75Z"/><path class="cls-1" d="M371.87,292.88H287v-2.42h13.63V174.56H287v-2.42h84.86v36.91H355.32l-7.76-34.5H327.2v54.33h22.6v2.42H327.2v59.16h20.35l7.76-38.29h16.56Z"/><path class="cls-1" d="M468.81,292.88H383.95v-2.42h13.63V174.56H383.95v-2.42h84.86v36.91H452.25l-7.76-34.5H424.14v54.33h22.6v2.42h-22.6v59.16h20.35l7.76-38.29h16.56Z"/><path class="cls-1" d="M480.89,290.47h13.63V174.56H480.89v-2.42H549a43.13,43.13,0,0,1,8.8.86,18.78,18.78,0,0,1,7.07,2.93,14.23,14.23,0,0,1,4.66,5.78,22.35,22.35,0,0,1,1.72,9.4v21q0,10.52-5.43,16t-15.44,5.52H535l1,3.79q1.38,4.31,5,4.48h21l12.07,48.47h9.66v2.42H553.5a7.24,7.24,0,0,1-5.17-1.64,10,10,0,0,1-2.59-4.4l-13.45-53.13H521.07v56.75h10.18v2.42H480.89Zm53.3-59.16a14.4,14.4,0,0,0,7-1.64q3-1.64,3-7V182.84a8.4,8.4,0,0,0-.95-4.23,7.24,7.24,0,0,0-2.5-2.59,8.93,8.93,0,0,0-3.54-1.21,31.26,31.26,0,0,0-4.05-.26H521.07v56.75Z"/><path class="cls-1" d="M83.14,380.16H66.58l-7.76-34.5H40.19V400H64.51v2.42H40.19v59.16H55.54V464H0v-2.42H13.63V345.66H0v-2.42H83.14Z"/><path class="cls-1" d="M128.5,461.57h12.25l-7.42-41.4H100.9l-7.59,41.4h11.21V464H77.27v-2.42H90.55l21.91-118.33h34.15L169,461.57h11.73V464H128.5Zm-27.08-43.81h31.39l-13.11-72.1h-5.17Z"/><path class="cls-1" d="M221,461.57h13.63V464H180.76v-2.42h13.63V345.66H180.76v-2.42h53.82v2.42H221Z"/><path class="cls-1" d="M241.47,461.57H255.1V345.66H241.47v-2.42h68.13a43.12,43.12,0,0,1,8.8.86,18.78,18.78,0,0,1,7.07,2.93,14.24,14.24,0,0,1,4.66,5.78,22.35,22.35,0,0,1,1.72,9.4v21q0,10.52-5.43,16T311,404.82H295.63l1,3.79q1.38,4.31,5,4.48h21l12.07,48.47h9.66V464H314.09a7.24,7.24,0,0,1-5.17-1.64,10,10,0,0,1-2.59-4.4l-13.45-53.13H281.66v56.75h10.18V464H241.47Zm53.3-59.16a14.4,14.4,0,0,0,7-1.64q3-1.64,3-7V353.94a8.39,8.39,0,0,0-.95-4.23,7.23,7.23,0,0,0-2.5-2.59,8.93,8.93,0,0,0-3.54-1.21,31.27,31.27,0,0,0-4.05-.26H281.66v56.75Z"/><path class="cls-2" d="M3.15,510a11.48,11.48,0,0,1,.68-4A7.92,7.92,0,0,1,6,502.75a10.28,10.28,0,0,1,4-2.08,22.22,22.22,0,0,1,6.08-.72,22.22,22.22,0,0,1,6.08.72,10.29,10.29,0,0,1,4,2.08,7.93,7.93,0,0,1,2.21,3.19,11.52,11.52,0,0,1,.68,4v40.4a11.86,11.86,0,0,1-.68,4.08,7.55,7.55,0,0,1-2.21,3.19,11.06,11.06,0,0,1-4,2.08,21.05,21.05,0,0,1-6.08.77,21,21,0,0,1-6.08-.77,11,11,0,0,1-4-2.08,7.54,7.54,0,0,1-2.21-3.19,11.83,11.83,0,0,1-.68-4.08ZM8.6,550.29a5.39,5.39,0,0,0,1.62,4q1.61,1.57,6,1.57t5.91-1.57a5.47,5.47,0,0,0,1.57-4V510.15a5.47,5.47,0,0,0-1.57-4q-1.57-1.57-5.91-1.57t-6,1.57a5.39,5.39,0,0,0-1.62,4Z"/><path class="cls-2" d="M57.58,508.36a3.15,3.15,0,0,0-1.53-2.89,9.61,9.61,0,0,0-4.85-.94q-6.38,0-6.38,3.83v43.71q0,3.83,6.38,3.83a9.61,9.61,0,0,0,4.85-.94,3.15,3.15,0,0,0,1.53-2.89V539.49H63v12.76a7.15,7.15,0,0,1-2.93,6q-2.93,2.21-8.89,2.21t-8.89-2.21a7.15,7.15,0,0,1-2.93-6V508.19a7.15,7.15,0,0,1,2.93-6q2.93-2.21,8.89-2.21t8.89,2.21a7.15,7.15,0,0,1,2.93,6v12.08H57.58Z"/><path class="cls-2" d="M78.08,505H68.56v-4.59H93V505H83.52V560H78.08Z"/><path class="cls-2" d="M138.46,505.13H121.28v18.12a11.82,11.82,0,0,1,6.8-2q6.46,0,9.1,2.42a8.41,8.41,0,0,1,2.64,6.51v21.52a10,10,0,0,1-.6,3.49,6.37,6.37,0,0,1-2,2.76,10.52,10.52,0,0,1-3.66,1.83,19.2,19.2,0,0,1-5.49.68,20.84,20.84,0,0,1-5.53-.64,9.6,9.6,0,0,1-3.7-1.83,7.09,7.09,0,0,1-2-2.76,9.32,9.32,0,0,1-.64-3.53V541.19h5.1v10.23a4.68,4.68,0,0,0,1.36,3.47q1.36,1.35,5.44,1.35,3.91,0,5.27-1.36a4.7,4.7,0,0,0,1.36-3.48V530.8a6.82,6.82,0,0,0-.3-2,4.15,4.15,0,0,0-1.06-1.74,5.54,5.54,0,0,0-2-1.23,9.54,9.54,0,0,0-3.23-.47,9.42,9.42,0,0,0-3.36.51,5.34,5.34,0,0,0-2.08,1.36,4.75,4.75,0,0,0-1.06,1.91,8,8,0,0,0-.3,2.17h-5.1V500.45h22.28Z"/><path class="cls-2" d="M147.22,532.18h15.05v4.68H147.22Z"/><path class="cls-2" d="M186.63,500.45l-9.49,23.22.43.25a7.37,7.37,0,0,1,1.82-.64,13.9,13.9,0,0,1,3.18-.3,23.12,23.12,0,0,1,4.19.38,10.83,10.83,0,0,1,3.69,1.36,7.45,7.45,0,0,1,2.58,2.64,8.21,8.21,0,0,1,1,4.21v20.24a8.21,8.21,0,0,1-1,4.21,7.69,7.69,0,0,1-2.63,2.68,10.8,10.8,0,0,1-3.85,1.4,26.74,26.74,0,0,1-4.58.38,27.26,27.26,0,0,1-4.66-.38,10.79,10.79,0,0,1-3.86-1.4,7.34,7.34,0,0,1-2.58-2.68,8.51,8.51,0,0,1-.93-4.21V532.69a17.81,17.81,0,0,1,.55-4.76q.55-2,1-3.15L181,500.45Zm2.27,31.11a3.65,3.65,0,0,0-1.83-3.48,10.49,10.49,0,0,0-5.06-1,8.16,8.16,0,0,0-5.1,1.44,4.67,4.67,0,0,0-1.87,3.9v19.33a3.63,3.63,0,0,0,1.87,3.48,10.74,10.74,0,0,0,5.1,1,10.48,10.48,0,0,0,5.06-1,3.65,3.65,0,0,0,1.83-3.48Z"/></g></g></svg>