<?xml version="1.0" encoding="utf-8"?>
<!-- Generator: Adobe Illustrator 16.0.4, SVG Export Plug-In . SVG Version: 6.00 Build 0)  -->
<!DOCTYPE svg PUBLIC "-//W3C//DTD SVG 1.1//EN" "http://www.w3.org/Graphics/SVG/1.1/DTD/svg11.dtd">
<svg version="1.1" id="Layer_1" xmlns="http://www.w3.org/2000/svg" xmlns:xlink="http://www.w3.org/1999/xlink" x="0px" y="0px"
	 width="169.512px" height="37.049px" viewBox="0 0 169.512 37.049" enable-background="new 0 0 169.512 37.049"
	 xml:space="preserve">
<g>
	<path fill="#333333" d="M15.427,13.514c0-0.271-0.079-0.459-0.237-0.564s-0.388-0.158-0.688-0.158
		c-0.286,0-0.512,0.053-0.677,0.158c-0.166,0.105-0.249,0.293-0.249,0.564v10.016c0,0.271,0.083,0.459,0.249,0.563
		c0.165,0.105,0.391,0.158,0.677,0.158c0.3,0,0.529-0.053,0.688-0.158c0.158-0.104,0.237-0.293,0.237-0.563v-3.406h2.774v3.903
		c0,0.42-0.053,0.797-0.158,1.127c-0.105,0.332-0.293,0.609-0.563,0.835s-0.647,0.399-1.128,0.519
		c-0.481,0.121-1.099,0.181-1.85,0.181c-0.753,0-1.365-0.06-1.839-0.181c-0.474-0.119-0.846-0.293-1.117-0.519
		c-0.271-0.226-0.458-0.503-0.563-0.835c-0.105-0.33-0.158-0.707-0.158-1.127V13.017c0-0.421,0.053-0.797,0.158-1.128
		c0.105-0.331,0.293-0.609,0.563-0.834c0.271-0.226,0.644-0.398,1.117-0.519c0.474-0.12,1.086-0.18,1.839-0.18
		c0.751,0,1.368,0.06,1.85,0.18c0.48,0.121,0.857,0.293,1.128,0.519s0.458,0.504,0.563,0.834c0.105,0.331,0.158,0.707,0.158,1.128
		v3.745h-2.774V13.514z"/>
	<path fill="#333333" d="M19.509,10.626h4.647c0.406,0,0.778,0.042,1.116,0.124c0.339,0.083,0.624,0.218,0.857,0.406
		s0.417,0.444,0.553,0.767s0.203,0.733,0.203,1.229v3.474c0,0.437-0.113,0.764-0.339,0.981c-0.226,0.218-0.436,0.372-0.631,0.462
		v0.158c0.21,0.076,0.436,0.214,0.677,0.417c0.24,0.203,0.36,0.508,0.36,0.914v4.309c0,0.48-0.067,0.887-0.203,1.218
		c-0.135,0.331-0.323,0.595-0.563,0.79c-0.241,0.195-0.534,0.334-0.88,0.417s-0.729,0.124-1.15,0.124h-4.647V10.626z M23.638,17.01
		c0.12,0,0.229-0.045,0.327-0.136c0.098-0.09,0.146-0.24,0.146-0.451v-2.797c0-0.21-0.064-0.357-0.192-0.44
		s-0.259-0.124-0.395-0.124h-1.24v3.948H23.638z M23.547,23.98c0.165,0,0.312-0.041,0.44-0.124c0.127-0.082,0.191-0.229,0.191-0.439
		v-3.52c0-0.165-0.061-0.282-0.181-0.35c-0.12-0.067-0.24-0.102-0.36-0.102h-1.354v4.534H23.547z"/>
	<path fill="#333333" d="M32.841,13.333c0-0.361-0.309-0.542-0.925-0.542c-0.646,0-0.97,0.181-0.97,0.542v1.557
		c0,0.256,0.026,0.451,0.079,0.586s0.124,0.248,0.214,0.338l3.429,3.136c0.301,0.256,0.542,0.549,0.723,0.88
		c0.18,0.33,0.271,0.797,0.271,1.398v2.685c0,0.992-0.297,1.703-0.892,2.132c-0.594,0.429-1.545,0.643-2.854,0.643
		c-0.677,0-1.26-0.045-1.748-0.136c-0.489-0.09-0.884-0.244-1.185-0.462s-0.522-0.503-0.665-0.856
		c-0.144-0.354-0.215-0.794-0.215-1.32v-3.632h2.752v3.315c0,0.241,0.095,0.41,0.282,0.508c0.188,0.098,0.447,0.146,0.778,0.146
		c0.286,0,0.519-0.049,0.699-0.146s0.271-0.267,0.271-0.508v-2.098c0-0.21-0.022-0.38-0.067-0.507
		c-0.045-0.128-0.128-0.245-0.248-0.35l-3.203-2.775c-0.376-0.331-0.67-0.691-0.88-1.083c-0.211-0.391-0.315-0.94-0.315-1.647V13.13
		c0-1.007,0.293-1.722,0.879-2.143c0.587-0.421,1.542-0.631,2.865-0.631c1.384,0,2.347,0.214,2.888,0.643
		c0.541,0.429,0.812,1.109,0.812,2.042v3.023h-2.775V13.333z"/>
</g>
<g>
	<path fill="#333333" d="M64.48,11.508c0-0.149-0.059-0.26-0.176-0.331c-0.117-0.072-0.303-0.107-0.556-0.107
		c-0.487,0-0.731,0.146-0.731,0.438v5.012c0,0.292,0.244,0.439,0.731,0.439c0.253,0,0.438-0.036,0.556-0.107
		c0.117-0.071,0.176-0.182,0.176-0.332v-1.443h0.624v1.462c0,0.292-0.112,0.523-0.337,0.692c-0.224,0.169-0.563,0.253-1.019,0.253
		s-0.795-0.084-1.02-0.253c-0.224-0.169-0.336-0.4-0.336-0.692v-5.051c0-0.292,0.112-0.523,0.336-0.692
		c0.225-0.169,0.564-0.253,1.02-0.253s0.795,0.084,1.019,0.253c0.225,0.169,0.337,0.399,0.337,0.692v1.385H64.48V11.508z"/>
	<path fill="#333333" d="M66.274,11.693c0-0.169,0.026-0.323,0.078-0.463c0.052-0.14,0.137-0.261,0.253-0.365
		c0.117-0.104,0.271-0.184,0.464-0.239c0.191-0.055,0.424-0.083,0.697-0.083c0.272,0,0.505,0.027,0.696,0.083
		c0.192,0.056,0.347,0.135,0.464,0.239c0.116,0.104,0.201,0.226,0.253,0.365c0.052,0.14,0.078,0.294,0.078,0.463v4.631
		c0,0.169-0.026,0.325-0.078,0.468s-0.137,0.265-0.253,0.366c-0.117,0.101-0.271,0.18-0.464,0.239
		c-0.191,0.059-0.424,0.088-0.696,0.088c-0.273,0-0.506-0.029-0.697-0.088c-0.192-0.059-0.347-0.138-0.464-0.239
		c-0.116-0.101-0.201-0.223-0.253-0.366s-0.078-0.299-0.078-0.468V11.693z M66.898,16.315c0,0.188,0.062,0.343,0.186,0.463
		c0.123,0.121,0.351,0.181,0.683,0.181c0.331,0,0.557-0.06,0.677-0.181c0.121-0.12,0.181-0.274,0.181-0.463v-4.602
		c0-0.188-0.06-0.343-0.181-0.463c-0.12-0.12-0.346-0.18-0.677-0.18c-0.332,0-0.56,0.06-0.683,0.18
		c-0.124,0.121-0.186,0.275-0.186,0.463V16.315z"/>
	<path fill="#333333" d="M70.525,10.601h1.638c0.149,0,0.294,0.013,0.435,0.039c0.14,0.026,0.263,0.073,0.37,0.142
		s0.193,0.159,0.259,0.273c0.064,0.114,0.097,0.255,0.097,0.424v1.833c0,0.312-0.097,0.561-0.292,0.746s-0.458,0.278-0.79,0.278
		h-1.092v3.091h-0.624V10.601z M72.134,13.809c0.149,0,0.281-0.031,0.396-0.093c0.113-0.062,0.17-0.193,0.17-0.395v-1.726
		c0-0.098-0.018-0.177-0.053-0.239c-0.036-0.062-0.083-0.11-0.142-0.146c-0.059-0.036-0.125-0.058-0.2-0.068
		c-0.074-0.01-0.151-0.015-0.229-0.015h-0.926v2.681H72.134z"/>
	<path fill="#333333" d="M74.299,10.601h2.34v0.527h-1.716v2.486h1.667v0.526h-1.667V16.9h1.716v0.526h-2.34V10.601z"/>
	<path fill="#333333" d="M80.451,10.601h0.565v6.825h-1.132l-1.442-6.298h-0.166v6.298h-0.565v-6.825h1.121l1.473,6.299h0.146
		V10.601z"/>
	<path fill="#333333" d="M84.634,10.601h0.624v6.825h-0.624v-3.286h-1.726v3.286h-0.624v-6.825h0.624v3.013h1.726V10.601z"/>
	<path fill="#333333" d="M88.855,15.34H87.11l-0.302,2.086h-0.624l1.092-6.825h1.413l1.103,6.825h-0.624L88.855,15.34z
		 M88.202,11.128h-0.429l-0.575,3.686h1.569L88.202,11.128z"/>
	<path fill="#333333" d="M92.336,13.809h1.326v3.461c-0.331,0.143-0.789,0.214-1.375,0.214c-0.565,0-0.968-0.103-1.209-0.307
		c-0.24-0.205-0.36-0.502-0.36-0.892v-4.67c0-0.351,0.127-0.617,0.38-0.799c0.254-0.182,0.618-0.273,1.093-0.273
		c0.474,0,0.838,0.091,1.092,0.273c0.253,0.182,0.38,0.448,0.38,0.799v0.965h-0.624v-0.877c0-0.188-0.063-0.341-0.189-0.458
		c-0.127-0.117-0.347-0.175-0.658-0.175c-0.312,0-0.532,0.059-0.658,0.175c-0.127,0.117-0.19,0.27-0.19,0.458v4.573
		c0,0.136,0.024,0.25,0.073,0.341c0.049,0.091,0.113,0.161,0.195,0.209c0.081,0.049,0.175,0.083,0.282,0.103s0.22,0.029,0.337,0.029
		c0.169,0,0.334-0.008,0.497-0.024c0.162-0.016,0.267-0.041,0.312-0.073v-2.525h-0.702V13.809z"/>
	<path fill="#333333" d="M94.93,10.601h2.34v0.527h-1.716v2.486h1.667v0.526h-1.667V16.9h1.716v0.526h-2.34V10.601z"/>
	<path fill="#333333" d="M101.083,10.601h0.565v6.825h-1.132l-1.442-6.298h-0.166v6.298h-0.565v-6.825h1.121l1.473,6.299h0.146
		V10.601z"/>
	<path fill="#333333" d="M104.963,10.601h1.638c0.149,0,0.294,0.013,0.435,0.039c0.14,0.026,0.263,0.073,0.37,0.142
		s0.193,0.159,0.259,0.273c0.064,0.114,0.097,0.255,0.097,0.424v1.638c0,0.202-0.04,0.356-0.121,0.463
		c-0.082,0.107-0.197,0.184-0.347,0.229v0.098c0.144,0.039,0.262,0.104,0.356,0.195c0.094,0.091,0.141,0.224,0.141,0.4v2.038
		c0,0.169-0.032,0.311-0.097,0.424c-0.065,0.114-0.153,0.205-0.264,0.273c-0.11,0.068-0.237,0.117-0.38,0.146
		c-0.144,0.029-0.293,0.044-0.449,0.044h-1.638V10.601z M106.571,13.614c0.149,0,0.281-0.031,0.396-0.093
		c0.113-0.062,0.17-0.193,0.17-0.395v-1.531c0-0.098-0.018-0.177-0.053-0.239c-0.036-0.062-0.083-0.11-0.142-0.146
		c-0.059-0.036-0.125-0.058-0.2-0.068c-0.074-0.01-0.151-0.015-0.229-0.015h-0.926v2.486H106.571z M106.532,16.9
		c0.078,0,0.156-0.005,0.234-0.015s0.146-0.033,0.205-0.068s0.105-0.084,0.142-0.146c0.035-0.062,0.053-0.141,0.053-0.239V14.56
		c0-0.162-0.062-0.273-0.189-0.332c-0.127-0.058-0.262-0.087-0.405-0.087h-0.984V16.9H106.532z"/>
	<path fill="#333333" d="M109.058,10.601h0.624v5.714c0,0.188,0.057,0.343,0.171,0.463c0.113,0.121,0.336,0.181,0.668,0.181
		c0.331,0,0.552-0.06,0.663-0.181c0.11-0.12,0.165-0.274,0.165-0.463v-5.714h0.634v5.724c0,0.169-0.024,0.325-0.073,0.468
		s-0.13,0.265-0.243,0.366c-0.114,0.101-0.266,0.18-0.453,0.239c-0.189,0.059-0.42,0.088-0.692,0.088
		c-0.273,0-0.504-0.029-0.692-0.088s-0.34-0.138-0.453-0.239c-0.114-0.101-0.195-0.223-0.244-0.366s-0.073-0.299-0.073-0.468V10.601
		z"/>
	<path fill="#333333" d="M115.19,11.537c0-0.13-0.054-0.24-0.161-0.332c-0.107-0.091-0.297-0.136-0.57-0.136
		c-0.279,0-0.473,0.045-0.58,0.136c-0.107,0.091-0.161,0.202-0.161,0.332v0.771c0,0.188,0.015,0.322,0.044,0.399
		c0.029,0.078,0.083,0.156,0.161,0.234l1.54,1.511c0.104,0.104,0.192,0.214,0.264,0.332c0.071,0.117,0.107,0.289,0.107,0.517v1.18
		c0,0.332-0.117,0.582-0.352,0.751c-0.233,0.169-0.575,0.253-1.023,0.253c-0.475,0-0.827-0.08-1.058-0.239
		c-0.231-0.159-0.347-0.415-0.347-0.766v-1.326h0.624v1.287c0,0.163,0.062,0.29,0.186,0.38c0.123,0.091,0.322,0.137,0.595,0.137
		c0.254,0,0.442-0.045,0.565-0.137c0.123-0.091,0.186-0.218,0.186-0.38v-1.033c0-0.163-0.019-0.286-0.054-0.371
		c-0.036-0.084-0.096-0.166-0.181-0.244l-1.433-1.336c-0.137-0.13-0.246-0.268-0.327-0.415c-0.081-0.146-0.122-0.359-0.122-0.639
		v-0.858c0-0.669,0.455-1.004,1.365-1.004c0.487,0,0.835,0.081,1.043,0.244s0.312,0.399,0.312,0.711v1.258h-0.624V11.537z"/>
	<path fill="#333333" d="M116.906,10.601h0.624v3.104v3.721h-0.624v-3.413V10.601z"/>
	<path fill="#333333" d="M121.538,10.601h0.565v6.825h-1.132l-1.442-6.298h-0.166v6.298h-0.565v-6.825h1.121l1.473,6.299h0.146
		V10.601z"/>
	<path fill="#333333" d="M123.37,10.601h2.34v0.527h-1.716v2.486h1.667v0.526h-1.667V16.9h1.716v0.526h-2.34V10.601z"/>
	<path fill="#333333" d="M128.724,11.537c0-0.13-0.054-0.24-0.161-0.332c-0.107-0.091-0.297-0.136-0.57-0.136
		c-0.279,0-0.473,0.045-0.58,0.136c-0.107,0.091-0.161,0.202-0.161,0.332v0.771c0,0.188,0.015,0.322,0.044,0.399
		c0.029,0.078,0.083,0.156,0.161,0.234l1.54,1.511c0.104,0.104,0.192,0.214,0.264,0.332c0.071,0.117,0.107,0.289,0.107,0.517v1.18
		c0,0.332-0.117,0.582-0.352,0.751c-0.233,0.169-0.575,0.253-1.023,0.253c-0.475,0-0.827-0.08-1.058-0.239
		c-0.231-0.159-0.347-0.415-0.347-0.766v-1.326h0.624v1.287c0,0.163,0.062,0.29,0.186,0.38c0.123,0.091,0.322,0.137,0.595,0.137
		c0.254,0,0.442-0.045,0.565-0.137c0.123-0.091,0.186-0.218,0.186-0.38v-1.033c0-0.163-0.019-0.286-0.054-0.371
		c-0.036-0.084-0.096-0.166-0.181-0.244l-1.433-1.336c-0.137-0.13-0.246-0.268-0.327-0.415c-0.081-0.146-0.122-0.359-0.122-0.639
		v-0.858c0-0.669,0.455-1.004,1.365-1.004c0.487,0,0.835,0.081,1.043,0.244s0.312,0.399,0.312,0.711v1.258h-0.624V11.537z"/>
	<path fill="#333333" d="M132.38,11.537c0-0.13-0.054-0.24-0.161-0.332c-0.107-0.091-0.297-0.136-0.57-0.136
		c-0.279,0-0.473,0.045-0.58,0.136c-0.107,0.091-0.161,0.202-0.161,0.332v0.771c0,0.188,0.015,0.322,0.044,0.399
		c0.029,0.078,0.083,0.156,0.161,0.234l1.54,1.511c0.104,0.104,0.192,0.214,0.264,0.332c0.071,0.117,0.107,0.289,0.107,0.517v1.18
		c0,0.332-0.117,0.582-0.352,0.751c-0.233,0.169-0.575,0.253-1.023,0.253c-0.475,0-0.827-0.08-1.058-0.239
		c-0.231-0.159-0.347-0.415-0.347-0.766v-1.326h0.624v1.287c0,0.163,0.062,0.29,0.186,0.38c0.123,0.091,0.322,0.137,0.595,0.137
		c0.254,0,0.442-0.045,0.565-0.137c0.123-0.091,0.186-0.218,0.186-0.38v-1.033c0-0.163-0.019-0.286-0.054-0.371
		c-0.036-0.084-0.096-0.166-0.181-0.244l-1.433-1.336c-0.137-0.13-0.246-0.268-0.327-0.415c-0.081-0.146-0.122-0.359-0.122-0.639
		v-0.858c0-0.669,0.455-1.004,1.365-1.004c0.487,0,0.835,0.081,1.043,0.244s0.312,0.399,0.312,0.711v1.258h-0.624V11.537z"/>
	<path fill="#333333" d="M138.084,11.537c0-0.13-0.054-0.24-0.161-0.332c-0.107-0.091-0.297-0.136-0.57-0.136
		c-0.279,0-0.473,0.045-0.58,0.136c-0.107,0.091-0.161,0.202-0.161,0.332v0.771c0,0.188,0.015,0.322,0.044,0.399
		c0.029,0.078,0.083,0.156,0.161,0.234l1.54,1.511c0.104,0.104,0.192,0.214,0.264,0.332c0.071,0.117,0.107,0.289,0.107,0.517v1.18
		c0,0.332-0.117,0.582-0.352,0.751c-0.233,0.169-0.575,0.253-1.023,0.253c-0.475,0-0.827-0.08-1.058-0.239
		c-0.231-0.159-0.347-0.415-0.347-0.766v-1.326h0.624v1.287c0,0.163,0.062,0.29,0.186,0.38c0.123,0.091,0.322,0.137,0.595,0.137
		c0.254,0,0.442-0.045,0.565-0.137c0.123-0.091,0.186-0.218,0.186-0.38v-1.033c0-0.163-0.019-0.286-0.054-0.371
		c-0.036-0.084-0.096-0.166-0.181-0.244l-1.433-1.336c-0.137-0.13-0.246-0.268-0.327-0.415c-0.081-0.146-0.122-0.359-0.122-0.639
		v-0.858c0-0.669,0.455-1.004,1.365-1.004c0.487,0,0.835,0.081,1.043,0.244s0.312,0.399,0.312,0.711v1.258h-0.624V11.537z"/>
	<path fill="#333333" d="M141.887,11.508c0-0.149-0.059-0.26-0.176-0.331c-0.117-0.072-0.303-0.107-0.556-0.107
		c-0.487,0-0.731,0.146-0.731,0.438v5.012c0,0.292,0.244,0.439,0.731,0.439c0.253,0,0.438-0.036,0.556-0.107
		c0.117-0.071,0.176-0.182,0.176-0.332v-1.443h0.624v1.462c0,0.292-0.112,0.523-0.337,0.692c-0.224,0.169-0.563,0.253-1.019,0.253
		s-0.795-0.084-1.02-0.253c-0.224-0.169-0.336-0.4-0.336-0.692v-5.051c0-0.292,0.112-0.523,0.336-0.692
		c0.225-0.169,0.564-0.253,1.02-0.253s0.795,0.084,1.019,0.253c0.225,0.169,0.337,0.399,0.337,0.692v1.385h-0.624V11.508z"/>
	<path fill="#333333" d="M146.029,10.601h0.624v6.825h-0.624v-3.286h-1.726v3.286h-0.624v-6.825h0.624v3.013h1.726V10.601z"/>
	<path fill="#333333" d="M147.921,11.693c0-0.169,0.026-0.323,0.078-0.463c0.052-0.14,0.137-0.261,0.253-0.365
		c0.117-0.104,0.271-0.184,0.464-0.239c0.191-0.055,0.424-0.083,0.697-0.083c0.272,0,0.505,0.027,0.696,0.083
		c0.192,0.056,0.347,0.135,0.464,0.239c0.116,0.104,0.201,0.226,0.253,0.365c0.052,0.14,0.078,0.294,0.078,0.463v4.631
		c0,0.169-0.026,0.325-0.078,0.468s-0.137,0.265-0.253,0.366c-0.117,0.101-0.271,0.18-0.464,0.239
		c-0.191,0.059-0.424,0.088-0.696,0.088c-0.273,0-0.506-0.029-0.697-0.088c-0.192-0.059-0.347-0.138-0.464-0.239
		c-0.116-0.101-0.201-0.223-0.253-0.366s-0.078-0.299-0.078-0.468V11.693z M148.545,16.315c0,0.188,0.062,0.343,0.186,0.463
		c0.123,0.121,0.351,0.181,0.683,0.181c0.331,0,0.557-0.06,0.677-0.181c0.121-0.12,0.181-0.274,0.181-0.463v-4.602
		c0-0.188-0.06-0.343-0.181-0.463c-0.12-0.12-0.346-0.18-0.677-0.18c-0.332,0-0.56,0.06-0.683,0.18
		c-0.124,0.121-0.186,0.275-0.186,0.463V16.315z"/>
	<path fill="#333333" d="M152.172,11.693c0-0.169,0.026-0.323,0.078-0.463c0.052-0.14,0.137-0.261,0.253-0.365
		c0.117-0.104,0.271-0.184,0.464-0.239c0.191-0.055,0.424-0.083,0.697-0.083c0.272,0,0.505,0.027,0.696,0.083
		c0.192,0.056,0.347,0.135,0.464,0.239c0.116,0.104,0.201,0.226,0.253,0.365c0.052,0.14,0.078,0.294,0.078,0.463v4.631
		c0,0.169-0.026,0.325-0.078,0.468s-0.137,0.265-0.253,0.366c-0.117,0.101-0.271,0.18-0.464,0.239
		c-0.191,0.059-0.424,0.088-0.696,0.088c-0.273,0-0.506-0.029-0.697-0.088c-0.192-0.059-0.347-0.138-0.464-0.239
		c-0.116-0.101-0.201-0.223-0.253-0.366s-0.078-0.299-0.078-0.468V11.693z M152.796,16.315c0,0.188,0.062,0.343,0.186,0.463
		c0.123,0.121,0.351,0.181,0.683,0.181c0.331,0,0.557-0.06,0.677-0.181c0.121-0.12,0.181-0.274,0.181-0.463v-4.602
		c0-0.188-0.06-0.343-0.181-0.463c-0.12-0.12-0.346-0.18-0.677-0.18c-0.332,0-0.56,0.06-0.683,0.18
		c-0.124,0.121-0.186,0.275-0.186,0.463V16.315z"/>
	<path fill="#333333" d="M156.423,10.601h0.624V16.9h1.765v0.526h-2.389V10.601z"/>
</g>
<g>
	<path fill="#333333" d="M43.148,13.601c0.689,0.466,1.392,0.918,2.115,1.352l-0.005-0.089l-1.152-2.688
		c-0.218-0.495-0.429-1.023-0.646-1.546h-2.203v2.033c0.103-0.081,0.226-0.135,0.36-0.153
		C42.416,12.425,42.519,13.351,43.148,13.601"/>
	<path fill="#333333" d="M48.051,22.515l-0.879-2.514l-1.123-2.862l-0.244-0.594l-0.57-0.362l-2.574-1.482
		c-0.379-0.289-0.942-0.364-1.232-0.73c-0.051-0.087-0.111-0.175-0.171-0.266v12.718h8.06l-0.031-0.105L48.051,22.515"/>
	<path fill="#333333" d="M46.152,15.292c0.13,0.552,0.713,0.675,1.079,1.002c1.474,1.015,2.98,2.1,4.418,3.19
		c0,0,0.032,0.021,0.078,0.054l-0.004-0.029c0,0,0-1.261,0.046-2.102c-0.059-1.646-0.188-3.904-0.479-5.319
		c-0.166-0.404-0.359-0.785-0.297-1.186c0.009-0.087-0.006-0.179-0.027-0.272h-6.371c0.068,0.206,0.137,0.413,0.208,0.617
		C45.25,12.584,45.672,13.957,46.152,15.292"/>
	<path fill="#333333" d="M52.428,11.196c0.201,0.488,0.052,0.979,0.09,1.478c0.064,1.413,0.121,2.828-0.098,4.242
		c-0.08,0.947-0.156,1.904-0.172,2.854c0,0,0.004,0.056,0.01,0.157c0.062,0.05,0.108,0.092,0.125,0.116l0.043-0.032l0.731-2.244
		l0.907-3.027c0.273-1.136,0.706-2.287,0.754-3.442c-0.1-0.2-0.199-0.44-0.197-0.668h-2.172
		C52.463,10.819,52.463,11.008,52.428,11.196"/>
	<path fill="#333333" d="M51.813,21.686L51.8,20.395c-0.059-0.041-0.115-0.086-0.155-0.136c-1.315-0.98-2.756-1.854-4.148-2.723
		c-0.103,0.018-0.082,0.148-0.102,0.22c0.41,2.604,1.378,5.187,2.17,7.787c0.103,0.295,0.174,0.589,0.26,0.882h0.444
		c0.448-1.343,0.884-2.647,1.321-4.008C51.666,22.181,51.739,21.939,51.813,21.686"/>
	<path fill="#333333" d="M56.242,10.629c-0.007,0.026-0.011,0.052-0.02,0.079c-0.277,1.075-0.591,2.129-1.067,3.186
		c-0.319,0.719-0.558,1.505-0.795,2.247c-0.416,0.627-0.671,1.365-0.954,2.078l-0.754,2.033c0.168,0.166,0.396,0.291,0.557,0.477
		c1.241,0.957,2.472,1.95,3.617,3.013c0.071,0.089,0.14,0.185,0.224,0.257V10.629H56.242"/>
	<path fill="#333333" d="M51.828,22.998l-0.342,0.866c-0.29,0.859-0.564,1.706-0.824,2.56h1.044l0.123-3.39L51.828,22.998"/>
	<path fill="#333333" d="M53.34,21.457c-0.368-0.256-0.368-0.256-0.445-0.316c-0.016-0.01-0.008-0.009-0.023-0.019
		c-0.034-0.021-0.069-0.036-0.1-0.058c-0.009-0.004-0.017,0.01-0.022,0.006c-0.029-0.019-0.068-0.052-0.111-0.077
		c-0.017,0.024-0.018,0.108-0.035,0.139c-0.055,0.137-0.138,0.247-0.138,0.247c-0.055,0.148-0.097,0.254-0.137,0.35
		c0.002,0.152,0.002,0.306,0.002,0.462c-0.003,0.964-0.123,2.606-0.092,2.731c0,0-0.033,0.94-0.057,1.502h4.868v-2.383l-0.131,0.003
		C55.72,23.182,54.546,22.312,53.34,21.457"/>
</g>
<g>
	<path fill="#333333" d="M63.812,22.224h0.385v4.201h-0.385v-2.022H62.75v2.022h-0.384v-4.201h0.384v1.854h1.062V22.224z"/>
	<path fill="#333333" d="M66.512,25.14h-1.074l-0.186,1.285h-0.384l0.672-4.201h0.87l0.678,4.201h-0.384L66.512,25.14z
		 M66.109,22.548h-0.264l-0.354,2.269h0.966L66.109,22.548z"/>
	<path fill="#333333" d="M69.445,22.224h0.348v4.201h-0.695l-0.889-3.877h-0.102v3.877H67.76v-4.201h0.689l0.906,3.877h0.09V22.224z
		"/>
	<path fill="#333333" d="M70.676,22.224h1.14c0.132,0,0.24,0.017,0.324,0.049c0.084,0.031,0.149,0.077,0.198,0.135
		c0.048,0.059,0.081,0.129,0.102,0.213c0.02,0.084,0.03,0.178,0.03,0.282v2.844c0,0.104-0.011,0.197-0.03,0.279
		c-0.021,0.082-0.054,0.153-0.102,0.213c-0.049,0.06-0.114,0.106-0.198,0.138c-0.084,0.032-0.192,0.049-0.324,0.049h-1.14V22.224z
		 M71.743,26.101c0.128,0,0.217-0.024,0.268-0.072c0.05-0.048,0.074-0.134,0.074-0.258v-2.898c0-0.119-0.024-0.203-0.074-0.252
		c-0.051-0.048-0.14-0.072-0.268-0.072H71.06v3.553H71.743z"/>
	<path fill="#333333" d="M73.352,22.224h1.439v0.324h-1.056v1.53h1.025v0.324h-1.025v1.698h1.056v0.324h-1.439V22.224z"/>
	<path fill="#333333" d="M75.553,22.224h0.384v3.877h1.086v0.324h-1.47V22.224z"/>
	<path fill="#333333" d="M78.798,22.8c0-0.08-0.032-0.147-0.099-0.203c-0.066-0.057-0.183-0.084-0.352-0.084
		c-0.172,0-0.29,0.027-0.356,0.084c-0.066,0.056-0.099,0.123-0.099,0.203v0.475c0,0.115,0.009,0.197,0.026,0.246
		c0.019,0.048,0.051,0.096,0.1,0.145l0.947,0.93c0.064,0.063,0.118,0.131,0.162,0.203s0.066,0.179,0.066,0.318v0.727
		c0,0.203-0.072,0.357-0.216,0.461c-0.145,0.104-0.354,0.156-0.631,0.156c-0.292,0-0.509-0.049-0.65-0.146
		c-0.143-0.098-0.213-0.256-0.213-0.471v-0.816h0.384v0.792c0,0.101,0.038,0.179,0.114,0.233c0.075,0.057,0.197,0.084,0.365,0.084
		c0.156,0,0.272-0.027,0.349-0.084c0.076-0.055,0.114-0.133,0.114-0.233v-0.636c0-0.1-0.012-0.176-0.033-0.229
		c-0.022-0.052-0.06-0.102-0.111-0.15l-0.882-0.821c-0.084-0.08-0.151-0.165-0.201-0.255s-0.075-0.221-0.075-0.393v-0.529
		c0-0.411,0.28-0.617,0.84-0.617c0.301,0,0.515,0.05,0.643,0.15c0.128,0.1,0.192,0.246,0.192,0.438v0.773h-0.385V22.8z"/>
	<path fill="#333333" d="M81.402,22.224h0.385v4.201h-0.385v-2.022h-1.062v2.022h-0.384v-4.201h0.384v1.854h1.062V22.224z"/>
	<path fill="#333333" d="M82.669,22.896c0-0.104,0.016-0.199,0.048-0.285s0.084-0.161,0.156-0.226
		c0.071-0.063,0.167-0.112,0.284-0.146c0.118-0.033,0.262-0.051,0.43-0.051s0.311,0.018,0.429,0.051
		c0.118,0.034,0.213,0.083,0.285,0.146c0.072,0.064,0.124,0.14,0.156,0.226c0.031,0.086,0.048,0.181,0.048,0.285v2.85
		c0,0.104-0.017,0.2-0.048,0.288c-0.032,0.088-0.084,0.163-0.156,0.225c-0.072,0.062-0.167,0.111-0.285,0.147
		s-0.261,0.054-0.429,0.054s-0.312-0.018-0.43-0.054c-0.117-0.036-0.213-0.085-0.284-0.147c-0.072-0.062-0.124-0.137-0.156-0.225
		s-0.048-0.184-0.048-0.288V22.896z M83.053,25.356l1.056-2.496c-0.008-0.088-0.044-0.166-0.107-0.234
		c-0.072-0.076-0.21-0.113-0.414-0.113s-0.345,0.037-0.42,0.111c-0.076,0.073-0.114,0.168-0.114,0.284V25.356z M84.001,26.028
		c0.075-0.076,0.113-0.172,0.113-0.288v-2.346l-1.05,2.466c0.016,0.061,0.05,0.116,0.103,0.168c0.075,0.072,0.216,0.107,0.42,0.107
		S83.929,26.101,84.001,26.028z"/>
	<path fill="#333333" d="M86.442,22.224h0.384v3.637c0,0.216-0.072,0.37-0.216,0.462c-0.144,0.093-0.342,0.138-0.594,0.138
		c-0.54,0-0.811-0.193-0.811-0.582v-0.726h0.385v0.726c0,0.092,0.038,0.158,0.116,0.198s0.182,0.06,0.31,0.06
		c0.284,0,0.426-0.084,0.426-0.252V22.224z"/>
	<path fill="#333333" d="M88.902,22.8c0-0.08-0.032-0.147-0.099-0.203c-0.066-0.057-0.183-0.084-0.352-0.084
		c-0.172,0-0.29,0.027-0.356,0.084c-0.066,0.056-0.099,0.123-0.099,0.203v0.475c0,0.115,0.009,0.197,0.026,0.246
		c0.019,0.048,0.051,0.096,0.1,0.145l0.947,0.93c0.064,0.063,0.118,0.131,0.162,0.203s0.066,0.179,0.066,0.318v0.727
		c0,0.203-0.072,0.357-0.216,0.461c-0.145,0.104-0.354,0.156-0.631,0.156c-0.292,0-0.509-0.049-0.65-0.146
		c-0.143-0.098-0.213-0.256-0.213-0.471v-0.816h0.384v0.792c0,0.101,0.038,0.179,0.114,0.233c0.075,0.057,0.197,0.084,0.365,0.084
		c0.156,0,0.272-0.027,0.349-0.084c0.076-0.055,0.114-0.133,0.114-0.233v-0.636c0-0.1-0.012-0.176-0.033-0.229
		c-0.022-0.052-0.06-0.102-0.111-0.15l-0.882-0.821c-0.084-0.08-0.151-0.165-0.201-0.255s-0.075-0.221-0.075-0.393v-0.529
		c0-0.411,0.28-0.617,0.84-0.617c0.301,0,0.515,0.05,0.643,0.15c0.128,0.1,0.192,0.246,0.192,0.438v0.773h-0.385V22.8z"/>
	<path fill="#333333" d="M91.578,22.224h0.42l-1.032,2.005l1.093,2.196h-0.42l-1.003-2.022h-0.191v2.022h-0.384v-4.201h0.384v1.854
		h0.191L91.578,22.224z"/>
	<path fill="#333333" d="M92.641,22.896c0-0.104,0.016-0.199,0.048-0.285s0.084-0.161,0.156-0.226
		c0.071-0.063,0.167-0.112,0.284-0.146c0.118-0.033,0.262-0.051,0.43-0.051s0.311,0.018,0.429,0.051
		c0.118,0.034,0.213,0.083,0.285,0.146c0.072,0.064,0.124,0.14,0.156,0.226c0.031,0.086,0.048,0.181,0.048,0.285v2.85
		c0,0.104-0.017,0.2-0.048,0.288c-0.032,0.088-0.084,0.163-0.156,0.225c-0.072,0.062-0.167,0.111-0.285,0.147
		s-0.261,0.054-0.429,0.054s-0.312-0.018-0.43-0.054c-0.117-0.036-0.213-0.085-0.284-0.147c-0.072-0.062-0.124-0.137-0.156-0.225
		s-0.048-0.184-0.048-0.288V22.896z M93.024,25.74c0,0.116,0.038,0.211,0.114,0.285c0.075,0.074,0.216,0.11,0.42,0.11
		s0.343-0.036,0.417-0.11c0.073-0.074,0.11-0.169,0.11-0.285v-2.832c0-0.116-0.037-0.211-0.11-0.284
		c-0.074-0.074-0.213-0.111-0.417-0.111s-0.345,0.037-0.42,0.111c-0.076,0.073-0.114,0.168-0.114,0.284V25.74z"/>
	<path fill="#333333" d="M95.358,22.224h0.384v3.877h1.086v0.324h-1.47V22.224z"/>
	<path fill="#333333" d="M97.409,22.224h1.439v0.324h-1.056v1.53h1.025v0.324h-1.025v1.698h1.056v0.324h-1.439V22.224z"/>
	<path fill="#333333" d="M101.297,22.224h0.348v4.201h-0.695l-0.889-3.877h-0.102v3.877h-0.348v-4.201h0.689l0.906,3.877h0.09
		V22.224z"/>
</g>
<g>
</g>
<g>
</g>
<g>
</g>
<g>
</g>
<g>
</g>
<g>
</g>
</svg>
