<svg xmlns="http://www.w3.org/2000/svg" x="0px" y="0px" viewBox="0 0 583.9 645" style="enable-background:new 0 0 583.9 645;" xml:space="preserve">
<style type="text/css">.st0{fill:#FFFFFF;} .st1{fill:#F37160;}</style>
<g>
	<path class="st0" d="M42.4,2.4c-4.1,0-7,0.6-8.5,1.9c-1.5,1.3-2.2,3.2-2.2,5.9v102.5c0,2.7,0.7,4.6,2.2,5.9c1.5,1.2,4.5,1.9,9,1.9
		c5,0.1,9.9-0.4,14.8-1.6c3.4-0.8,6.7-2.5,9.4-4.8c2.3-2,4-4.6,4.9-7.5c1-3.2,1.5-6.6,1.5-9.9V80.2h2.8v16.7c0,3.5-0.5,6.9-1.5,10.3
		c-1,3.2-2.8,6-5.3,8.2c-3,2.5-6.5,4.4-10.3,5.4c-5.3,1.5-10.8,2.1-16.3,2c-6.6,0.1-13.2-0.4-19.7-1.5c-4-0.7-7.9-2-11.5-4
		c-2.4-1.3-4.3-3.4-5.3-5.9c-0.9-2.3-1.3-4.7-1.3-7.2V18.5c0-2.4,0.4-4.9,1.2-7.2c1-2.5,2.9-4.6,5.3-5.9c2.7-1.7,6.6-3,11.6-4
		C29.8,0.3,36.4-0.1,43.1,0c3.8,0,7.7,0.2,11.6,0.5s7.6,0.7,11,1l11.3,1.4v35H60.5L52.6,3.1C49.2,2.6,45.8,2.4,42.4,2.4z"/>
	<path class="st0" d="M85.7,119.4h13.6V3.4H85.7V1h69c6.9,0,12.3,1.4,16.3,4.2s6,7.2,6,13.3v21.9c0,4.8-0.9,8.6-2.8,11.4
		s-4.8,4.8-9,6v1.7c8.4,2.4,12.6,7.6,12.6,15.7v27.4c0,6-2.1,10.7-6.2,14.1c-4.1,3.4-9.8,5.1-16.9,5.1h-69V119.4z M139.9,57.8
		c2.4,0.1,4.8-0.5,7-1.6c2-1.1,3-3.4,3-7V11.7c0.1-1.5-0.3-2.9-0.9-4.2c-0.6-1.1-1.5-2-2.5-2.6c-1.1-0.6-2.3-1.1-3.5-1.2
		c-1.3-0.2-2.7-0.3-4.1-0.3h-12.9v54.3H139.9z M139.2,119.4c1.4,0,2.8-0.1,4.1-0.3c1.3-0.1,2.5-0.6,3.6-1.2c1-0.6,1.9-1.5,2.5-2.6
		c0.7-1.3,1-2.8,0.9-4.2V67.6c0-2.9-1.1-4.8-3.4-5.9c-2.2-1-4.7-1.6-7.2-1.5h-14v59.2H139.2z"/>
	<path class="st0" d="M231.6,120.4c5.7,0,9.6-1,11.6-2.9s3-5.4,3-10.3V100c0-2.9-0.1-5.3-0.3-7.3c-0.1-1.8-0.5-3.6-1.1-5.3
		c-0.6-1.5-1.5-2.9-2.6-4.1c-1.4-1.4-3-2.7-4.7-3.9l-25.2-16.9c-2.7-1.8-5.1-3.6-7.3-5.2c-2.2-1.5-4.1-3.4-5.8-5.4
		c-1.7-2.1-2.9-4.5-3.8-7.1c-1-3.2-1.5-6.4-1.4-9.8V23.3c-0.1-3.6,0.5-7.2,1.6-10.6c1.2-3,3.3-5.6,6-7.2c2.9-1.9,7-3.3,12.1-4.1
		c6.5-1,13-1.4,19.6-1.3c3.8,0,7.6,0.2,11.5,0.5s7.4,0.7,10.6,1c3.7,0.5,7.2,0.9,10.7,1.4v35h-16.6l-7.9-35
		c-1.5-0.2-3.1-0.4-4.7-0.4c-1.6-0.1-3.4-0.1-5.4-0.1c-2.2-0.1-4.4,0.2-6.6,0.8c-1.5,0.4-2.9,1.2-4.1,2.3c-1,1.1-1.7,2.5-2,4
		c-0.4,1.9-0.5,3.9-0.5,5.9V24c0,2,0.1,4,0.4,6c0.3,1.6,0.8,3,1.6,4.4c0.9,1.4,2,2.7,3.3,3.7c1.7,1.4,3.5,2.6,5.4,3.8l26,17.1
		c2.5,1.5,4.8,3.2,7,5.1c1.8,1.6,3.4,3.5,4.7,5.5c1.3,2.1,2.2,4.4,2.8,6.8c0.6,3,0.9,6.1,0.9,9.1v12.3c0,8.9-3.2,15.2-9.5,19.2
		c-6.3,3.9-16.8,5.9-31.4,5.9c-4.3,0-8.4-0.2-12.5-0.5c-4.1-0.3-7.8-0.8-11.1-1.4c-3.8-0.5-7.5-1.1-11.2-1.9V81.1h16.6l7.9,38.6
		c2,0.3,4,0.5,6,0.6C227.5,120.4,229.6,120.4,231.6,120.4z"/>
	<path class="st0" d="M42.4,173.5c-4.1,0-7,0.6-8.5,1.9c-1.5,1.3-2.2,3.2-2.2,5.9v102.5c0,2.7,0.7,4.6,2.2,5.9s4.5,1.9,9,1.9
		c5,0.1,9.9-0.4,14.8-1.6c3.5-0.8,6.7-2.5,9.4-4.7c2.3-2,4-4.6,4.9-7.5c1-3.2,1.5-6.6,1.5-9.9v-16.4h2.8V268c0,3.5-0.5,6.9-1.5,10.3
		c-1,3.2-2.8,6-5.3,8.2c-3,2.5-6.5,4.4-10.3,5.4c-5.3,1.5-10.8,2.1-16.3,2c-6.6,0.1-13.2-0.4-19.7-1.5c-4-0.7-7.9-2-11.5-4
		c-2.4-1.3-4.3-3.4-5.3-5.9c-0.9-2.3-1.3-4.7-1.3-7.2v-85.9c0-2.4,0.4-4.9,1.2-7.2c1-2.5,2.9-4.6,5.3-5.9c2.7-1.7,6.6-3,11.6-4
		c6.6-1.1,13.2-1.6,19.9-1.5c3.8,0,7.7,0.2,11.6,0.5s7.6,0.7,11,1l11.3,1.5v35H60.5l-7.9-34.8C49.2,173.7,45.8,173.5,42.4,173.5z"/>
	<path class="st0" d="M128.3,290.5h12.2l-7.4-41.4h-32.4l-7.6,41.4h11.2v2.4H77.1v-2.4h13.3l21.9-118.3h34.2l22.4,118.3h11.7v2.4
		h-52.3V290.5z M101.2,246.7h31.4l-13.1-72.1h-5.2L101.2,246.7z"/>
	<path class="st0" d="M180.6,290.5h13.6V174.6h-13.6v-2.4h68.1c3,0,5.9,0.3,8.8,0.9c2.5,0.5,4.9,1.5,7.1,2.9c2,1.5,3.6,3.5,4.7,5.8
		c1.2,3,1.8,6.2,1.7,9.4v21c0,7-1.8,12.3-5.4,16s-8.8,5.5-15.4,5.5h-15.4l1,3.8c0.9,2.9,2.6,4.4,5,4.5h21l12.1,48.5h9.7v2.4h-30.3
		c-1.9,0.1-3.7-0.4-5.2-1.6c-1.2-1.2-2.1-2.7-2.6-4.4l-13.5-53h-11.2v56.8H231v2.4h-50.4V290.5z M233.9,231.3c2.4,0.1,4.8-0.5,7-1.6
		c2-1.1,3-3.4,3-7v-39.8c0.1-1.5-0.3-2.9-0.9-4.2c-0.6-1.1-1.5-2-2.5-2.6c-1.1-0.6-2.3-1.1-3.5-1.2c-1.3-0.2-2.7-0.3-4.1-0.3h-12.1
		v56.8L233.9,231.3z"/>
	<path class="st0" d="M371.9,292.9H287v-2.4h13.6V174.6H287v-2.4h84.9V209h-16.5l-7.8-34.5h-20.4v54.3h22.6v2.4h-22.6v59.2h20.4
		l7.8-38.3h16.6L371.9,292.9z"/>
	<path class="st0" d="M468.8,292.9H384v-2.4h13.6V174.6H384v-2.4h84.9V209h-16.6l-7.8-34.5h-20.3v54.3h22.6v2.4h-22.6v59.2h20.4
		l7.8-38.3h16.6L468.8,292.9z"/>
	<path class="st0" d="M480.9,290.5h13.6V174.6h-13.6v-2.4H549c3,0,5.9,0.3,8.8,0.9c2.5,0.5,4.9,1.5,7.1,2.9c2,1.5,3.6,3.5,4.7,5.8
		c1.2,3,1.8,6.2,1.7,9.4v21c0,7-1.8,12.3-5.4,16s-8.8,5.5-15.4,5.5H535l1,3.8c0.9,2.9,2.6,4.4,5,4.5h21l12.1,48.5h9.7v2.4h-30.2
		c-1.9,0.1-3.7-0.4-5.2-1.6c-1.2-1.2-2.1-2.7-2.6-4.4l-13.5-53.1h-11.2v56.8h10.2v2.4h-50.4V290.5z M534.2,231.3
		c2.4,0.1,4.8-0.5,7-1.6c2-1.1,3-3.4,3-7v-39.8c0.1-1.5-0.3-2.9-1-4.2c-0.6-1.1-1.5-2-2.5-2.6c-1.1-0.6-2.3-1.1-3.5-1.2
		c-1.3-0.2-2.7-0.3-4-0.3h-12.1v56.8L534.2,231.3z"/>
	<path class="st0" d="M83.1,380.2H66.6l-7.8-34.5H40.2V400h24.3v2.4H40.2v59.2h15.4v2.4H0v-2.4h13.6V345.7H0v-2.4h83.1V380.2z"/>
	<path class="st0" d="M128.5,461.6h12.2l-7.4-41.4h-32.4l-7.6,41.4h11.2v2.4H77.3v-2.4h13.3l21.9-118.3h34.2L169,461.6h11.7v2.4
		h-52.2V461.6z M101.4,417.8h31.4l-13.1-72.1h-5.2L101.4,417.8z"/>
	<path class="st0" d="M221,461.6h13.6v2.4h-53.9v-2.4h13.6V345.7h-13.6v-2.4h53.8v2.4H221V461.6z"/>
	<path class="st0" d="M241.5,461.6h13.6V345.7h-13.6v-2.4h68.1c3,0,5.9,0.3,8.8,0.9c2.5,0.5,4.9,1.5,7.1,2.9c2,1.5,3.6,3.5,4.7,5.8
		c1.2,3,1.8,6.2,1.7,9.4v21c0,7-1.8,12.3-5.4,16s-8.8,5.5-15.4,5.6h-15.4l1,3.8c0.9,2.9,2.6,4.4,5,4.5h21l12.1,48.5h9.7v2.4h-30.3
		c-1.9,0.1-3.7-0.4-5.2-1.6c-1.2-1.2-2.1-2.7-2.6-4.4l-13.5-53.1h-11.2v56.8h10.2v2.4h-50.4V461.6z M294.8,402.4
		c2.4,0.1,4.8-0.5,7-1.6c2-1.1,3-3.4,3-7v-39.8c0.1-1.5-0.3-2.9-1-4.2c-0.6-1.1-1.5-2-2.5-2.6c-1.1-0.6-2.3-1.1-3.5-1.2
		c-1.3-0.2-2.7-0.3-4-0.3h-12.1v56.8L294.8,402.4z"/>
	<g>
		<path class="st1" d="M3.2,510c0-1.4,0.2-2.7,0.7-4c0.4-1.2,1.2-2.4,2.2-3.2c1.2-1,2.5-1.7,4-2.1c2-0.5,4-0.8,6.1-0.7
			c2.1,0,4.1,0.2,6.1,0.7c1.5,0.4,2.8,1.1,4,2.1c1,0.9,1.7,2,2.2,3.2c0.5,1.3,0.7,2.6,0.7,4v40.4c0,1.4-0.2,2.8-0.7,4.1
			c-0.4,1.2-1.2,2.3-2.2,3.2c-1.2,1-2.5,1.7-4,2.1c-2,0.6-4,0.8-6.1,0.8c-2.1,0-4.1-0.2-6.1-0.8c-1.5-0.4-2.8-1.1-4-2.1
			c-1-0.9-1.8-2-2.2-3.2c-0.5-1.3-0.7-2.7-0.7-4.1L3.2,510z M8.6,550.3c0,1.5,0.5,3,1.6,4c1.1,1,3.1,1.6,6,1.6s4.9-0.5,5.9-1.6
			c1-1.1,1.6-2.5,1.6-4v-40.1c0-1.5-0.5-2.9-1.6-4c-1-1-3-1.6-5.9-1.6s-4.9,0.5-6,1.6c-1.1,1-1.7,2.5-1.6,4L8.6,550.3z"/>
		<path class="st1" d="M57.6,508.4c0.1-1.2-0.5-2.3-1.5-2.9c-1.5-0.7-3.2-1.1-4.8-0.9c-4.3,0-6.4,1.3-6.4,3.8v43.7
			c0,2.6,2.1,3.8,6.4,3.8c1.7,0.1,3.3-0.2,4.8-0.9c1-0.6,1.6-1.7,1.5-2.9v-12.6H63v12.8c0.1,2.4-1,4.6-2.9,6c-2,1.5-4.9,2.2-8.9,2.2
			s-6.9-0.7-8.9-2.2c-1.9-1.4-3-3.6-2.9-6v-44.1c-0.1-2.4,1-4.6,2.9-6c2-1.5,4.9-2.2,8.9-2.2s6.9,0.7,8.9,2.2c1.9,1.4,3,3.6,2.9,6
			v12.1h-5.4V508.4z"/>
		<path class="st1" d="M78.1,505h-9.5v-4.6H93v4.6h-9.5v55h-5.4V505z"/>
		<path class="st1" d="M138.5,505.1h-17.2v18.1c2-1.3,4.4-2,6.8-2c4.3,0,7.3,0.8,9.1,2.4c1.8,1.7,2.8,4.1,2.6,6.5v21.5
			c0,1.2-0.2,2.4-0.6,3.5c-0.4,1.1-1.1,2-2,2.8c-1.1,0.8-2.3,1.5-3.7,1.8c-1.8,0.5-3.6,0.7-5.5,0.7c-1.9,0-3.7-0.2-5.5-0.6
			c-1.4-0.3-2.6-1-3.7-1.8c-0.9-0.7-1.6-1.7-2-2.8c-0.4-1.1-0.7-2.3-0.6-3.5v-10.5h5.1v10.2c0,1.3,0.4,2.6,1.4,3.5
			c0.9,0.9,2.7,1.3,5.4,1.3c2.6,0,4.4-0.5,5.3-1.4c0.9-0.9,1.4-2.2,1.4-3.5v-20.6c0-0.7-0.1-1.4-0.3-2c-0.2-0.7-0.6-1.3-1.1-1.7
			c-0.6-0.5-1.3-1-2-1.2c-1-0.3-2.1-0.5-3.2-0.5c-1.1,0-2.3,0.1-3.4,0.5c-0.8,0.3-1.5,0.7-2.1,1.4c-0.5,0.5-0.9,1.2-1.1,1.9
			c-0.2,0.7-0.3,1.4-0.3,2.2h-5.1v-30.9h22.3L138.5,505.1z"/>
		<path class="st1" d="M147.2,532.2h15.1v4.7h-15.1V532.2z"/>
		<path class="st1" d="M186.6,500.4l-9.5,23.2l0.4,0.2c0.6-0.3,1.2-0.5,1.8-0.6c1-0.2,2.1-0.3,3.2-0.3c1.4,0,2.8,0.1,4.2,0.4
			c1.3,0.2,2.6,0.7,3.7,1.4c1.1,0.6,2,1.6,2.6,2.6c0.7,1.3,1,2.7,1,4.2v20.2c0,1.5-0.3,2.9-1,4.2c-0.6,1.1-1.5,2-2.6,2.7
			c-1.2,0.7-2.5,1.2-3.9,1.4c-1.5,0.3-3,0.4-4.6,0.4c-1.6,0-3.1-0.1-4.7-0.4c-1.4-0.2-2.7-0.7-3.9-1.4c-1.1-0.7-2-1.6-2.6-2.7
			c-0.7-1.3-1-2.8-0.9-4.2v-19.1c0-1.6,0.2-3.2,0.6-4.8c0.4-1.3,0.7-2.4,1-3.2l9.5-24.3H186.6z M188.9,531.6
			c0.1-1.4-0.6-2.8-1.8-3.5c-1.6-0.7-3.3-1.1-5.1-1c-1.8-0.1-3.6,0.4-5.1,1.4c-1.2,0.9-1.9,2.4-1.9,3.9v19.3
			c-0.1,1.4,0.6,2.8,1.9,3.5c1.6,0.7,3.3,1.1,5.1,1c1.7,0.1,3.5-0.3,5.1-1c1.2-0.7,2-2.1,1.8-3.5V531.6z"/>
	</g>
	<g>
		<path class="st1" d="M3.1,636.3h10.4v-50.2H3.1v-4.7h15.5v54.8h10.4v4.7H3.1V636.3z"/>
		<path class="st1" d="M35.2,591c0-1.5,0.2-2.8,0.6-4c0.4-1.2,1.1-2.3,2.1-3.2c1-0.9,2.3-1.6,3.9-2.1c1.6-0.5,3.6-0.7,6.1-0.7
			c2.5,0,4.5,0.2,6.1,0.7c1.6,0.5,2.9,1.2,3.9,2.1c1,0.9,1.6,2,2,3.2c0.4,1.2,0.6,2.6,0.6,4v40.4c0,1.5-0.2,2.8-0.6,4.1
			c-0.4,1.2-1.1,2.3-2,3.2c-1,0.9-2.2,1.6-3.9,2.1c-1.6,0.5-3.7,0.8-6.1,0.8c-2.4,0-4.4-0.3-6.1-0.8c-1.6-0.5-2.9-1.2-3.9-2.1
			c-1-0.9-1.7-1.9-2.1-3.2c-0.4-1.2-0.6-2.6-0.6-4.1V591z M40.3,631.7c0,1.6,0.5,3,1.6,4c1.1,1,3.1,1.6,5.9,1.6s4.9-0.5,5.9-1.6
			c1-1,1.6-2.4,1.6-4v-40.8c0-1.6-0.5-3-1.6-4c-1-1-3-1.6-5.9-1.6s-4.9,0.5-5.9,1.6c-1.1,1-1.6,2.4-1.6,4V631.7z"/>
		<path class="st1" d="M69.1,604.5h7.1v8h-7.1V604.5z M69.1,633h7.1v8h-7.1V633z"/>
		<path class="st1" d="M84.8,591c0-1.5,0.2-2.8,0.6-4c0.4-1.2,1.1-2.3,2.1-3.2c1-0.9,2.3-1.6,3.9-2.1c1.6-0.5,3.6-0.7,6.1-0.7
			c2.5,0,4.5,0.2,6.1,0.7c1.6,0.5,2.9,1.2,3.9,2.1c1,0.9,1.6,2,2,3.2c0.4,1.2,0.6,2.6,0.6,4v40.4c0,1.5-0.2,2.8-0.6,4.1
			c-0.4,1.2-1.1,2.3-2,3.2c-1,0.9-2.2,1.6-3.9,2.1c-1.6,0.5-3.7,0.8-6.1,0.8c-2.4,0-4.4-0.3-6.1-0.8c-1.6-0.5-2.9-1.2-3.9-2.1
			c-1-0.9-1.7-1.9-2.1-3.2c-0.4-1.2-0.6-2.6-0.6-4.1V591z M89.9,631.7c0,1.6,0.5,3,1.6,4c1.1,1,3.1,1.6,5.9,1.6s4.9-0.5,5.9-1.6
			c1-1,1.6-2.4,1.6-4v-40.8c0-1.6-0.5-3-1.6-4c-1-1-3-1.6-5.9-1.6s-4.9,0.5-5.9,1.6c-1.1,1-1.6,2.4-1.6,4V631.7z"/>
		<path class="st1" d="M117.1,591c0-1.5,0.2-2.8,0.6-4c0.4-1.2,1.1-2.3,2.1-3.2c1-0.9,2.3-1.6,3.9-2.1c1.6-0.5,3.6-0.7,6.1-0.7
			c2.5,0,4.5,0.2,6.1,0.7c1.6,0.5,2.9,1.2,3.9,2.1c1,0.9,1.6,2,2,3.2c0.4,1.2,0.6,2.6,0.6,4v40.4c0,1.5-0.2,2.8-0.6,4.1
			c-0.4,1.2-1.1,2.3-2,3.2c-1,0.9-2.2,1.6-3.9,2.1c-1.6,0.5-3.7,0.8-6.1,0.8c-2.4,0-4.4-0.3-6.1-0.8c-1.6-0.5-2.9-1.2-3.9-2.1
			c-1-0.9-1.7-1.9-2.1-3.2c-0.4-1.2-0.6-2.6-0.6-4.1V591z M122.2,631.7c0,1.6,0.5,3,1.6,4c1.1,1,3.1,1.6,5.9,1.6
			c2.9,0,4.9-0.5,5.9-1.6c1-1,1.6-2.4,1.6-4v-40.8c0-1.6-0.5-3-1.6-4c-1-1-3-1.6-5.9-1.6c-2.9,0-4.9,0.5-5.9,1.6
			c-1.1,1-1.6,2.4-1.6,4V631.7z"/>
		<path class="st1" d="M149.5,613.2h15v4.7h-15V613.2z"/>
		<path class="st1" d="M171.8,636.3h10.4v-50.2h-10.4v-4.7h15.5v54.8h10.4v4.7h-25.8V636.3z"/>
		<path class="st1" d="M221.2,581.5l-9.5,23.2l0.4,0.3c0.4-0.2,1-0.4,1.8-0.6c0.8-0.2,1.9-0.3,3.2-0.3c1.4,0,2.8,0.1,4.2,0.4
			c1.4,0.3,2.6,0.7,3.7,1.4c1.1,0.7,1.9,1.5,2.6,2.6c0.6,1.1,1,2.5,1,4.2v20.2c0,1.7-0.3,3.1-1,4.2c-0.6,1.1-1.5,2-2.6,2.7
			c-1.1,0.7-2.4,1.1-3.9,1.4c-1.5,0.3-3,0.4-4.6,0.4c-1.6,0-3.2-0.1-4.7-0.4c-1.5-0.3-2.8-0.7-3.9-1.4c-1.1-0.7-2-1.6-2.6-2.7
			c-0.6-1.1-0.9-2.5-0.9-4.2v-19.1c0-1.9,0.2-3.5,0.5-4.8c0.4-1.3,0.7-2.4,1-3.1l9.6-24.3H221.2z M223.4,612.6
			c0-1.6-0.6-2.8-1.8-3.5c-1.2-0.7-2.9-1-5.1-1c-2.2,0-3.9,0.5-5.1,1.4c-1.2,1-1.9,2.3-1.9,3.9v19.3c0,1.6,0.6,2.8,1.9,3.5
			c1.2,0.7,2.9,1,5.1,1c2.2,0,3.8-0.3,5.1-1c1.2-0.7,1.8-1.8,1.8-3.5V612.6z"/>
		<path class="st1" d="M237.8,604.5h7.1v8h-7.1V604.5z M237.8,633h7.1v8h-7.1V633z"/>
		<path class="st1" d="M253.5,591c0-1.5,0.2-2.8,0.6-4c0.4-1.2,1.1-2.3,2.1-3.2c1-0.9,2.3-1.6,3.9-2.1c1.6-0.5,3.6-0.7,6.1-0.7
			c2.5,0,4.5,0.2,6.1,0.7s2.9,1.2,3.9,2.1c1,0.9,1.6,2,2,3.2c0.4,1.2,0.6,2.6,0.6,4v40.4c0,1.5-0.2,2.8-0.6,4.1
			c-0.4,1.2-1.1,2.3-2,3.2c-1,0.9-2.2,1.6-3.9,2.1s-3.7,0.8-6.1,0.8c-2.4,0-4.4-0.3-6.1-0.8c-1.6-0.5-2.9-1.2-3.9-2.1
			c-1-0.9-1.7-1.9-2.1-3.2c-0.4-1.2-0.6-2.6-0.6-4.1V591z M258.6,631.7c0,1.6,0.5,3,1.6,4c1.1,1,3.1,1.6,5.9,1.6
			c2.9,0,4.9-0.5,5.9-1.6c1-1,1.6-2.4,1.6-4v-40.8c0-1.6-0.5-3-1.6-4c-1-1-3-1.6-5.9-1.6c-2.9,0-4.9,0.5-5.9,1.6
			c-1.1,1-1.6,2.4-1.6,4V631.7z"/>
		<path class="st1" d="M285.8,591c0-1.5,0.2-2.8,0.6-4c0.4-1.2,1.1-2.3,2.1-3.2c1-0.9,2.3-1.6,3.9-2.1s3.6-0.7,6.1-0.7
			c2.5,0,4.5,0.2,6.1,0.7c1.6,0.5,2.9,1.2,3.9,2.1c1,0.9,1.6,2,2,3.2c0.4,1.2,0.6,2.6,0.6,4v40.4c0,1.5-0.2,2.8-0.6,4.1
			c-0.4,1.2-1.1,2.3-2,3.2c-1,0.9-2.2,1.6-3.9,2.1c-1.6,0.5-3.7,0.8-6.1,0.8c-2.4,0-4.4-0.3-6.1-0.8s-2.9-1.2-3.9-2.1
			c-1-0.9-1.7-1.9-2.1-3.2c-0.4-1.2-0.6-2.6-0.6-4.1V591z M290.9,631.7c0,1.6,0.5,3,1.6,4c1.1,1,3.1,1.6,6,1.6
			c2.9,0,4.9-0.5,5.9-1.6c1-1,1.6-2.4,1.6-4v-40.8c0-1.6-0.5-3-1.6-4c-1-1-3-1.6-5.9-1.6c-2.9,0-4.9,0.5-6,1.6c-1.1,1-1.6,2.4-1.6,4
			V631.7z"/>
	</g>
</g>
</svg>
