<?xml version="1.0" standalone="no"?>
<!DOCTYPE svg PUBLIC "-//W3C//DTD SVG 1.1//EN" "http://www.w3.org/Graphics/SVG/1.1/DTD/svg11.dtd" >
<svg xmlns="http://www.w3.org/2000/svg">
<metadata>
This is a custom SVG webfont generated by Font Squirrel.
Copyright   : Copyright c 2012 by Tore Rosbo at 1508 AS All rights reserved
Designer    : Tore Rosbo at 1508 AS
Foundry     : Tore Rosbo at 1508 AS
</metadata>
<defs>
<font id="CBSNEWBold" horiz-adv-x="839" >
<font-face units-per-em="2048" ascent="1632" descent="-416" />
<missing-glyph horiz-adv-x="409" />
<glyph unicode=" "  horiz-adv-x="409" />
<glyph unicode="&#x09;" horiz-adv-x="409" />
<glyph unicode="&#xa0;" horiz-adv-x="409" />
<glyph unicode="!" horiz-adv-x="497" d="M129 0v248h240v-248h-240zM129 389v1045h240v-1045h-240z" />
<glyph unicode="&#x22;" horiz-adv-x="727" d="M82 1085v349h235v-349h-235zM410 1085v349h235v-349h-235z" />
<glyph unicode="#" d="M0 0l72 391h-72v213h113l39 215h-152v213h193l75 402h219l-75 -402h133l76 402h219l-76 -402h76v-213h-117l-41 -215h158v-213h-197l-74 -391h-217l72 391h-133l-74 -391h-217zM330 604h135l39 215h-133z" />
<glyph unicode="$" horiz-adv-x="829" d="M82 242v315h250v-287q0 -59 86 -59q78 0 78 59v176q0 29 -6.5 45.5t-18.5 28.5q-68 61 -138.5 128t-135.5 128q-51 47 -80 99.5t-29 148.5v168q0 111 47 168t158 76v202h235v-200q123 -16 169 -73.5t46 -164.5v-260h-251v234q0 27 -16.5 38t-57.5 11q-45 0 -61.5 -11.5 t-16.5 -37.5v-127q0 -35 6 -51.5t14 -26.5l297 -291q37 -37 64 -81t27 -126v-229q0 -111 -51.5 -169.5t-168.5 -74.5v-203h-235v203q-117 14 -164 70.5t-47 173.5z" />
<glyph unicode="%" d="M-16 1020v244q0 92 54 135t146 43q86 0 142.5 -43t56.5 -135v-244q0 -98 -56.5 -140t-142.5 -42q-92 0 -146 42t-54 140zM76 0l532 1434h148l-531 -1434h-149zM133 1030q0 -29 11.5 -42t39.5 -13q47 0 47 55v221q0 53 -47 54q-29 0 -40 -13.5t-11 -40.5v-221zM461 174 v244q0 92 54 134t147 42q86 0 142 -42t56 -134v-244q0 -98 -56 -140t-142 -42q-92 0 -146.5 42t-54.5 140zM610 184q0 -29 11.5 -42t40.5 -13q47 0 47 55v222q0 53 -47 53q-29 0 -40.5 -13.5t-11.5 -39.5v-222z" />
<glyph unicode="&#x26;" horiz-adv-x="927" d="M-41 240v258q0 86 34 138t73 87l59 53q-29 43 -50.5 77t-35.5 64.5t-20.5 61.5t-6.5 70v139q0 141 79 198.5t239 57.5q90 0 151.5 -13.5t98 -43t53 -76.5t16.5 -113v-141q0 -66 -20.5 -118t-73.5 -105l-100 -97l159 -227l82 121h293l-223 -334l209 -297h-297l-68 96 q-51 -57 -129 -81.5t-200 -24.5q-172 0 -247 58.5t-75 191.5zM209 287q0 -41 22.5 -58.5t73.5 -17.5q59 0 95 24.5t65 65.5l-195 277q-35 -31 -48 -49.5t-13 -47.5v-194zM264 1051q0 -25 6 -41.5t21 -36.5l24 -33l47 39q27 23 32 45.5t5 56.5v93q0 27 -14 38t-55 11 q-66 0 -66 -49v-123z" />
<glyph unicode="'" horiz-adv-x="399" d="M82 1085v349h235v-349h-235z" />
<glyph unicode="(" horiz-adv-x="616" d="M102 719q0 174 33 358.5t101 356.5h217q-61 -180 -89 -367.5t-28 -347.5q0 -182 33.5 -370.5t81.5 -348.5h-213q-55 131 -95.5 316.5t-40.5 402.5z" />
<glyph unicode=")" horiz-adv-x="616" d="M164 1434h217q68 -172 100.5 -356.5t32.5 -358.5q0 -217 -40 -402.5t-95 -316.5h-213q47 160 81 348.5t34 370.5q0 160 -28 347.5t-89 367.5z" />
<glyph unicode="*" d="M68 991l159 90l-159 93l100 165l156 -92v185h194v-183l154 90l100 -165l-162 -93l162 -90l-100 -166l-156 90v-180h-192v183l-156 -93z" />
<glyph unicode="+" horiz-adv-x="819" d="M82 504v213h215v219h225v-219h215v-213h-215v-223h-225v223h-215z" />
<glyph unicode="," horiz-adv-x="407" d="M82 -174v379h244l-129 -379h-115z" />
<glyph unicode="-" horiz-adv-x="567" d="M82 504v213h403v-213h-403z" />
<glyph unicode="." horiz-adv-x="407" d="M82 0v252h244v-252h-244z" />
<glyph unicode="/" horiz-adv-x="778" d="M0 0l532 1434h246l-530 -1434h-248z" />
<glyph unicode="0" d="M82 262v909q0 59 16.5 109.5t55.5 86.5t103.5 56.5t160.5 20.5q100 0 164.5 -20.5t103.5 -56.5t54.5 -86t15.5 -110v-909q0 -59 -15.5 -109.5t-54.5 -86t-103.5 -56t-164.5 -20.5q-96 0 -160.5 20.5t-103.5 56t-55.5 86t-16.5 109.5zM317 256q0 -29 21.5 -47.5 t79.5 -18.5q59 0 79.5 18.5t20.5 47.5v922q0 29 -20.5 47t-79.5 18q-57 0 -79 -18.5t-22 -46.5v-922z" />
<glyph unicode="1" d="M133 1221v213h477v-1434h-235v1221h-242z" />
<glyph unicode="2" d="M102 0v371q0 76 25 117.5t66 89.5l286 340q16 20 22.5 36.5t6.5 55.5v166q0 29 -13.5 48t-70.5 19t-69.5 -19.5t-12.5 -47.5v-232h-240v264q0 117 75 176.5t247 59.5q322 0 321 -246v-197q0 -88 -28.5 -140t-73.5 -105l-274 -328q-14 -16 -20.5 -31.5t-6.5 -46.5v-149 h401v-201h-641z" />
<glyph unicode="3" d="M86 223v281h240v-246q0 -33 14 -50.5t72 -17.5q57 0 72.5 17.5t15.5 50.5v334q0 23 -14.5 33t-55.5 10h-100v211h100q41 0 52.5 13t11.5 42v277q0 33 -14.5 49t-67.5 16t-69.5 -16.5t-16.5 -48.5v-234h-240v266q0 109 75 171.5t251 62.5t249.5 -62.5t73.5 -171.5v-329 q0 -49 -26.5 -80t-51.5 -45v-19q27 -12 54.5 -39.5t27.5 -74.5v-400q0 -111 -84 -172t-243 -61q-172 0 -249 61t-77 172z" />
<glyph unicode="4" d="M74 385v207l375 842h245l-348 -801v-47h154v221h243v-807h-243v385h-426z" />
<glyph unicode="5" d="M111 233v271h239v-248q0 -31 17.5 -48.5t68.5 -17.5q47 0 66.5 17.5t19.5 48.5v436q0 25 -19.5 40.5t-66.5 15.5q-55 0 -72.5 -17.5t-17.5 -38.5v-22h-235v764h618v-201h-379v-307q20 8 48 14t63 6q164 0 232.5 -68.5t68.5 -181.5v-463q0 -104 -76 -173.5t-250 -69.5 q-90 0 -152.5 18.5t-100.5 50t-55 76.5t-17 98z" />
<glyph unicode="6" d="M94 231v449q0 70 12.5 126t28.5 95l225 533h254l-208 -488h16q66 0 125 -11t104 -39t72 -75t27 -116v-474q0 -72 -27 -117.5t-72 -73.5t-104.5 -39t-124.5 -11q-68 0 -127 11t-103.5 39t-71 73.5t-26.5 117.5zM334 256q0 -31 18.5 -48.5t69.5 -17.5q49 0 68.5 17.5 t19.5 48.5v430q0 31 -19.5 46.5t-68.5 15.5q-88 0 -88 -66v-426z" />
<glyph unicode="7" d="M102 985v449h686v-195l-376 -1239h-240l365 1186v47h-195v-248h-240z" />
<glyph unicode="8" d="M90 223v400q0 47 25.5 74.5t50.5 39.5v19q-25 14 -49.5 44.5t-24.5 80.5v329q0 109 76 171.5t252 62.5t253 -62.5t77 -171.5v-329q0 -49 -26 -80t-50 -45v-19q25 -12 50.5 -40.5t25.5 -73.5v-400q0 -111 -85 -172t-245 -61t-245 61t-85 172zM330 254q0 -25 14 -44.5 t76 -19.5q63 0 76.5 19.5t13.5 44.5v321q0 27 -22.5 43.5t-67.5 16.5q-90 0 -90 -60v-321zM336 899q0 -53 84 -53q86 0 86 53v285q0 25 -16.5 42t-69.5 17t-68.5 -17.5t-15.5 -41.5v-285z" />
<glyph unicode="9" d="M90 729v473q0 70 26.5 117t71.5 74.5t104.5 39t125.5 11.5q68 0 127 -11.5t103 -39t70.5 -74.5t26.5 -117v-448q0 -70 -12 -126.5t-28 -95.5l-226 -532h-254l209 487h-16q-66 0 -125.5 11.5t-104.5 39t-71.5 73.5t-26.5 118zM330 743q0 -25 19.5 -41t68.5 -16 q45 0 66.5 16.5t21.5 45.5v434q0 23 -18.5 42t-69.5 19q-49 0 -68.5 -19.5t-19.5 -41.5v-439z" />
<glyph unicode=":" horiz-adv-x="407" d="M82 0v252h244v-252h-244zM82 834v251h244v-251h-244z" />
<glyph unicode=";" horiz-adv-x="407" d="M82 -174v379h244l-129 -379h-115zM82 834v251h244v-251h-244z" />
<glyph unicode="&#x3c;" horiz-adv-x="784" d="M31 496v213l669 426v-277l-368 -231v-54l368 -227v-276z" />
<glyph unicode="=" d="M92 289v213h656v-213h-656zM92 717v213h656v-213h-656z" />
<glyph unicode="&#x3e;" d="M84 70v276l369 227v54l-369 231v277l670 -426v-213z" />
<glyph unicode="?" horiz-adv-x="821" d="M88 987v221q0 117 75 176.5t249 59.5q322 0 321 -246v-203q0 -43 -6 -73.5t-18.5 -54t-29.5 -44t-38 -43.5l-90 -96q-31 -33 -31 -100v-195h-239v209q0 37 5 63.5t16 49t27.5 44t39.5 46.5l100 117q16 20 21.5 32.5t5.5 53.5v190q0 16 -15.5 32.5t-68.5 16.5t-68.5 -16.5 t-15.5 -32.5v-207h-240zM281 0v248h239v-248h-239z" />
<glyph unicode="@" horiz-adv-x="1476" d="M88 319v599q0 80 31 143t105.5 108t199.5 70t313 25q184 0 308 -25t201 -70t110 -108.5t33 -142.5v-517q0 -80 -23 -131t-62.5 -80.5t-94 -41t-115.5 -11.5q-104 0 -169 28t-94 93q-43 -12 -84.5 -18.5t-70.5 -6.5q-129 0 -183.5 54.5t-54.5 189.5v223q0 137 59.5 189.5 t182.5 52.5q63 0 117 -47h8v37h225v-531q0 -27 18.5 -36t45.5 -9q20 0 36.5 7.5t20.5 29.5v531q0 33 -21.5 58.5t-69.5 43.5t-127 27.5t-196 9.5q-115 0 -193.5 -9.5t-127.5 -27.5t-70.5 -44t-21.5 -58v-611q0 -43 15 -78.5t60 -62.5t126 -42t212 -15v-201 q-203 0 -328.5 25.5t-197.5 77t-97.5 127t-25.5 175.5zM676 481q0 -23 5 -36t28 -13q49 0 86 33v248q-16 10 -38 20t-48 10q-23 0 -28 -12t-5 -35v-215z" />
<glyph unicode="A" horiz-adv-x="923" d="M37 0l196 1434h453l201 -1434h-254l-51 381h-242l-51 -381h-252zM369 602h182l-68 584h-41z" />
<glyph unicode="B" horiz-adv-x="892" d="M109 0v1434h421q55 0 101.5 -11.5t78 -37t50 -69.5t18.5 -112v-315q0 -59 -30.5 -89t-57.5 -42v-15q29 -10 61.5 -37.5t32.5 -82.5v-392q0 -66 -18 -110.5t-51 -71t-80 -38t-105 -11.5h-421zM360 221h115q23 0 40 11.5t17 39.5v320q0 23 -16 32t-33 9h-123v-412zM360 854 h123q16 0 29.5 12.5t13.5 40.5v254q0 29 -17 40t-36 11h-113v-358z" />
<glyph unicode="C" horiz-adv-x="866" d="M109 231v971q0 57 14 102.5t51 76t101.5 47t166.5 16.5t168 -16.5t103 -47t51 -75.5t14 -103v-325h-252v280q0 37 -21.5 51.5t-62.5 14.5q-39 0 -61.5 -14.5t-22.5 -51.5v-881q0 -37 22.5 -51t61.5 -14q41 0 62.5 14.5t21.5 50.5v295h252v-340q0 -57 -14 -102t-51 -75.5 t-102.5 -47t-168.5 -16.5q-102 0 -166.5 16.5t-101.5 47t-51 75.5t-14 102z" />
<glyph unicode="D" horiz-adv-x="909" d="M109 0v1434h442q82 0 131 -19.5t75.5 -54.5t35 -85t8.5 -114v-889q0 -61 -8.5 -111t-35 -86t-75.5 -55.5t-131 -19.5h-442zM360 221h148q25 0 33 10.5t8 32.5v907q0 23 -8.5 32t-32.5 9h-148v-991z" />
<glyph unicode="E" horiz-adv-x="757" d="M109 0v1434h581v-222h-330v-358h320v-221h-320v-412h330v-221h-581z" />
<glyph unicode="F" horiz-adv-x="720" d="M109 0v1434h565v-222h-314v-358h302v-221h-302v-633h-251z" />
<glyph unicode="G" horiz-adv-x="905" d="M109 281v897q0 66 14 115.5t53 83.5t105.5 50.5t171.5 16.5q104 0 170.5 -16.5t105.5 -50.5t53.5 -84t14.5 -115v-226h-252v209q0 29 -19.5 45.5t-72.5 16.5t-73 -16.5t-20 -45.5v-880q0 -43 29 -56.5t70 -13.5h49q20 0 37 2v381h-84v223h336v-788q-59 -16 -146.5 -27.5 t-179.5 -11.5q-121 0 -191.5 18.5t-109.5 55t-50 91t-11 126.5z" />
<glyph unicode="H" horiz-adv-x="933" d="M109 0v1434h251v-580h213v580h252v-1434h-252v633h-213v-633h-251z" />
<glyph unicode="I" horiz-adv-x="468" d="M109 0v1434h251v-1434h-251z" />
<glyph unicode="J" horiz-adv-x="792" d="M47 231v287h252v-246q0 -35 17.5 -48t50.5 -13t49 12.5t16 46.5v1164h252v-1198q0 -133 -72.5 -189.5t-244.5 -56.5q-90 0 -151.5 15t-98.5 46t-53.5 76t-16.5 104z" />
<glyph unicode="K" horiz-adv-x="899" d="M109 0v1434h251v-580h48l174 580h272l-225 -686l243 -748h-272l-197 635h-43v-635h-251z" />
<glyph unicode="L" horiz-adv-x="706" d="M109 0v1434h251v-1213h340v-221h-591z" />
<glyph unicode="M" horiz-adv-x="1396" d="M109 0v1434h423l150 -1112h35l127 1112h444v-1434h-233v1171h-27l-166 -1171h-323l-170 1171h-27v-1171h-233z" />
<glyph unicode="N" horiz-adv-x="1095" d="M109 0v1434h415l207 -1131h23v1131h233v-1434h-395l-221 1169h-29v-1169h-233z" />
<glyph unicode="O" horiz-adv-x="923" d="M109 272v891q0 82 18 136.5t60 87t108.5 45t165.5 12.5q98 0 165.5 -12.5t109.5 -45t60.5 -87t18.5 -136.5v-891q0 -84 -18.5 -138t-60.5 -86t-109.5 -45t-165.5 -13t-165 13t-109 45t-60 86t-18 138zM360 295q0 -43 21.5 -63.5t79.5 -20.5q59 0 79.5 20.5t20.5 63.5v844 q0 43 -20.5 63.5t-79.5 20.5q-57 0 -79 -20.5t-22 -63.5v-844z" />
<glyph unicode="P" horiz-adv-x="845" d="M109 0v1434h421q55 0 104.5 -11.5t85.5 -37t57.5 -69.5t21.5 -112v-352q0 -117 -62.5 -187.5t-191.5 -70.5h-185v-594h-251zM360 817h144q43 0 43 53v291q0 29 -15.5 40t-37.5 11h-134v-395z" />
<glyph unicode="Q" horiz-adv-x="923" d="M88 276v887q0 82 21.5 136.5t67.5 87t115.5 45t168.5 12.5q98 0 168.5 -12.5t117 -45t68 -87t21.5 -136.5v-887q0 -154 -76 -216t-242 -68v-166h-115v166q-164 6 -239.5 68t-75.5 216zM340 285q0 -41 12.5 -58.5t50.5 -23.5v203h115v-203q37 6 50.5 23.5t13.5 58.5v854 q0 43 -25 63.5t-96 20.5q-72 0 -96.5 -20.5t-24.5 -63.5v-854z" />
<glyph unicode="R" horiz-adv-x="907" d="M109 0v1434h421q55 0 104.5 -11.5t85.5 -37t57.5 -69.5t21.5 -112v-352q0 -49 -14.5 -87t-35 -65.5t-44 -45t-39.5 -23.5l153 -631h-252l-133 596h-74v-596h-251zM360 817h144q43 0 43 53v291q0 29 -12.5 40t-40.5 11h-134v-395z" />
<glyph unicode="S" horiz-adv-x="821" d="M68 242v315h249v-287q0 -33 26 -46t71 -13q39 0 63.5 13.5t24.5 45.5v176q0 29 -6.5 46.5t-22.5 31.5l-291 252q-51 45 -79.5 98.5t-28.5 149.5v168q0 137 79.5 194.5t260.5 57.5q188 0 262 -58.5t74 -185.5v-260h-252v234q0 49 -84 49q-88 0 -88 -49v-127q0 -35 7 -53.5 t19 -30.5l312 -285q41 -35 65.5 -80t24.5 -127v-229q0 -135 -81 -193.5t-259 -58.5q-92 0 -159 12t-108 42t-60 78t-19 120z" />
<glyph unicode="T" horiz-adv-x="704" d="M16 1212v222h672v-222h-211v-1212h-252v1212h-209z" />
<glyph unicode="U" horiz-adv-x="911" d="M109 272v1162h251v-1139q0 -47 19.5 -65.5t77.5 -18.5q55 0 73.5 18.5t18.5 65.5v1139h254v-1162q0 -68 -14.5 -120t-53.5 -88.5t-106.5 -55t-171.5 -18.5q-106 0 -174 18.5t-107 55t-53 88.5t-14 120z" />
<glyph unicode="V" d="M37 1434h250l125 -1108h26l115 1108h250l-178 -1434h-392z" />
<glyph unicode="W" horiz-adv-x="1474" d="M37 1434h254l125 -1108h30l99 1108h389l110 -1108h25l115 1108h254l-178 -1434h-371l-137 1151h-25l-121 -1151h-373z" />
<glyph unicode="X" horiz-adv-x="892" d="M27 0l182 727l-164 707h266l109 -580h33l129 580h266l-184 -666l202 -768h-266l-149 635h-29l-129 -635h-266z" />
<glyph unicode="Y" horiz-adv-x="833" d="M27 1434h256l120 -529h25l123 529h256l-262 -891v-543h-252v547z" />
<glyph unicode="Z" horiz-adv-x="759" d="M47 0v240l393 929v43h-377v222h650v-242l-389 -944v-27h387v-221h-664z" />
<glyph unicode="[" horiz-adv-x="741" d="M102 0v1434h435v-234h-205v-967h205v-233h-435z" />
<glyph unicode="\" horiz-adv-x="772" d="M20 1434h246l486 -1434h-248z" />
<glyph unicode="]" horiz-adv-x="741" d="M205 0v233h205v967h-205v234h434v-1434h-434z" />
<glyph unicode="^" d="M31 764l282 670h213l283 -670h-277l-104 291h-16l-105 -291h-276z" />
<glyph unicode="_" d="M0 0h840v-215h-840v215z" />
<glyph unicode="`" horiz-adv-x="786" d="M205 1331v41h225l164 -123v-41h-223z" />
<glyph unicode="a" horiz-adv-x="815" d="M92 233v187q0 49 12.5 85t36 62.5t58 47t80.5 40.5l206 97v84q0 20 -10 37.5t-57 17.5q-55 0 -65.5 -17.5t-10.5 -37.5v-68h-242v111q0 51 15.5 92t52.5 68.5t98.5 42t153.5 14.5q86 0 144.5 -15.5t94 -44t50 -70.5t14.5 -96v-870h-234v43h-16q-16 -12 -54 -32.5 t-108 -20.5q-111 0 -165 63t-54 180zM332 254q0 -35 17.5 -47t49.5 -12q25 0 48.5 12t37.5 35v276l-104 -49q-35 -16 -42 -27.5t-7 -46.5v-141z" />
<glyph unicode="b" horiz-adv-x="827" d="M92 0v1434h238v-398h10q16 12 55 36t109 24q111 0 171 -63.5t60 -180.5v-619q0 -117 -60.5 -180t-170.5 -63q-66 0 -106 18.5t-56 34.5h-16v-43h-234zM330 242q18 -18 40.5 -32.5t51.5 -14.5q33 0 53.5 12t20.5 47v577q0 35 -20.5 47.5t-53.5 12.5q-29 0 -49.5 -15.5 t-42.5 -31.5v-602z" />
<glyph unicode="c" horiz-adv-x="802" d="M92 195v659q0 70 24.5 117t67.5 74.5t102.5 39t131.5 11.5q293 0 293 -213v-230h-238v176q0 33 -15.5 47.5t-51.5 14.5q-76 0 -76 -62v-579q0 -55 69 -55q74 0 74 55v180h238v-219q0 -106 -75 -163.5t-235 -57.5q-141 0 -225 47t-84 158z" />
<glyph unicode="d" horiz-adv-x="829" d="M92 233v619q0 117 57.5 180.5t167.5 63.5q66 0 110 -22.5t60 -37.5h13v398h237v-1434h-233v43h-17q-16 -14 -58 -33.5t-112 -19.5q-111 0 -168 63t-57 180zM332 254q0 -35 20.5 -47t53.5 -12q57 0 94 47v602q-16 16 -41 31.5t-53 15.5q-33 0 -53.5 -12.5t-20.5 -47.5 v-577z" />
<glyph unicode="e" horiz-adv-x="811" d="M92 233v621q0 70 21.5 117t62.5 74.5t99.5 39t130.5 11.5q70 0 128 -11.5t99 -39t63.5 -74.5t22.5 -117v-399h-389v-201q0 -25 14 -42t62 -17q45 0 59 17t14 42v94h240v-115q0 -72 -22.5 -118.5t-63.5 -74.5t-99.5 -39t-127.5 -11q-72 0 -130.5 11t-99.5 39t-62.5 74.5 t-21.5 118.5zM330 672h149v162q0 25 -14 41t-59 16q-47 0 -61.5 -16.5t-14.5 -40.5v-162z" />
<glyph unicode="f" horiz-adv-x="530" d="M20 868v217h119v103q0 117 65.5 181.5t203.5 64.5h102v-217h-86q-45 0 -45 -48v-84h131v-217h-131v-868h-240v868h-119z" />
<glyph unicode="g" horiz-adv-x="827" d="M92 375v477q0 117 57.5 180.5t167.5 63.5q66 0 108 -19.5t60 -34.5h17v43h233v-1022q0 -141 -80 -214.5t-241 -73.5q-154 0 -232 55t-78 156v65h236v-31q0 -35 22.5 -49t55.5 -14q37 0 58.5 14.5t21.5 61.5v147h-13q-14 -12 -56 -30.5t-112 -18.5q-111 0 -168 63.5 t-57 180.5zM332 395q0 -59 78 -59q27 0 49 13t39 34v461q-16 16 -38 31.5t-50 15.5q-78 0 -78 -60v-436z" />
<glyph unicode="h" horiz-adv-x="819" d="M92 0v1434h238v-398h10q14 14 55 37t111 23q111 0 166 -63.5t55 -180.5v-852h-240v831q0 59 -63 60q-29 0 -53.5 -15.5t-40.5 -31.5v-844h-238z" />
<glyph unicode="i" horiz-adv-x="423" d="M92 0v1085h240v-1085h-240zM92 1208v164h240v-164h-240z" />
<glyph unicode="j" horiz-adv-x="448" d="M20 0h31q66 0 66 66v1019h239v-1054q0 -117 -59 -181.5t-207 -64.5h-70v215zM117 1208v164h239v-164h-239z" />
<glyph unicode="k" horiz-adv-x="847" d="M92 0v1434h238v-742h39l180 393h278l-243 -499l264 -586h-273l-208 475h-37v-475h-238z" />
<glyph unicode="l" horiz-adv-x="421" d="M92 0v1434h238v-1434h-238z" />
<glyph unicode="m" horiz-adv-x="1220" d="M92 0v1085h234v-49h10q16 12 62 36t116 24q59 0 102 -21.5t72 -60.5q35 27 93.5 54.5t129.5 27.5q111 0 164 -63.5t53 -180.5v-852h-239v834q0 57 -64 57q-29 0 -56.5 -17.5t-39.5 -29.5v-844h-240v831q0 31 -18 45.5t-47 14.5q-27 0 -49.5 -13.5t-44.5 -33.5v-844h-238z " />
<glyph unicode="n" horiz-adv-x="823" d="M92 0v1085h234v-38h10q16 10 63 29.5t117 19.5q111 0 163 -63.5t52 -180.5v-852h-239v831q0 31 -18.5 45.5t-47.5 14.5q-27 0 -50.5 -13.5t-45.5 -33.5v-844h-238z" />
<glyph unicode="o" horiz-adv-x="815" d="M92 233v621q0 141 83 191.5t233 50.5q147 0 231 -50.5t84 -191.5v-621q0 -72 -21.5 -118.5t-62.5 -74.5t-99.5 -39t-131.5 -11q-74 0 -133.5 11t-99.5 39t-61.5 74.5t-21.5 118.5zM330 258q0 -35 18.5 -49t59.5 -14q39 0 57 14t18 49v571q0 35 -18.5 48.5t-56.5 13.5 q-41 0 -59.5 -13.5t-18.5 -48.5v-571z" />
<glyph unicode="p" horiz-adv-x="827" d="M92 -215v1300h234v-43h16q16 14 60 34t114 20q111 0 165 -63.5t54 -180.5v-619q0 -117 -54 -180t-165 -63q-66 0 -113 22.5t-63 36.5h-10v-264h-238zM330 242q18 -18 40.5 -32.5t51.5 -14.5q33 0 53.5 12t20.5 47v577q0 35 -20.5 47.5t-53.5 12.5q-29 0 -50.5 -15.5 t-41.5 -31.5v-602z" />
<glyph unicode="q" horiz-adv-x="827" d="M92 233v619q0 117 54.5 180.5t164.5 63.5q66 0 111 -19.5t63 -34.5h17v43h233v-1300h-237v264h-13q-14 -14 -59 -36.5t-115 -22.5q-111 0 -165 63t-54 180zM332 254q0 -35 20.5 -47t53.5 -12q25 0 46 12t46 35v602q-20 16 -42 31.5t-50 15.5q-33 0 -53.5 -12.5 t-20.5 -47.5v-577z" />
<glyph unicode="r" horiz-adv-x="555" d="M92 0v1085h234v-51h14q16 12 55 31.5t105 19.5h35v-204h-56q-78 0 -149 -47v-834h-238z" />
<glyph unicode="s" horiz-adv-x="708" d="M51 199v149h238v-90q0 -25 10 -44t55 -19t55.5 20.5t10.5 44.5v80q0 25 -7 40t-30 32l-211 133q-57 35 -87 76t-30 127v124q0 106 85 165t227 59q80 0 135 -18.5t89 -47.5t49 -63.5t15 -65.5v-143h-229v76q0 20 -10 38.5t-56 18.5q-47 0 -57 -20.5t-10 -41.5v-59 q0 -23 4 -35t20 -22l232 -148q53 -35 80.5 -79t27.5 -111v-164q0 -106 -78.5 -163.5t-226.5 -57.5q-131 0 -216 47t-85 162z" />
<glyph unicode="t" horiz-adv-x="528" d="M20 868v217h119v349h240v-349h119v-217h-119v-604q0 -47 45 -47h74v-217h-90q-137 0 -203 64.5t-66 181.5v622h-119z" />
<glyph unicode="u" horiz-adv-x="819" d="M92 233v852h240v-831q0 -59 63 -59q25 0 47.5 12t46.5 35v843h238v-1085h-233v49h-13q-14 -16 -59 -37.5t-115 -21.5q-111 0 -163 63t-52 180z" />
<glyph unicode="v" horiz-adv-x="776" d="M20 1085h244l111 -864h24l115 864h242l-168 -1085h-398z" />
<glyph unicode="w" horiz-adv-x="1329" d="M20 1085h244l111 -864h22l97 864h344l92 -864h22l115 864h242l-168 -1085h-369l-98 795h-21l-94 -795h-369z" />
<glyph unicode="x" horiz-adv-x="849" d="M20 1085h259l129 -417h24l129 417h258l-176 -518l186 -567h-256l-143 463h-20l-131 -463h-254l172 567z" />
<glyph unicode="y" horiz-adv-x="790" d="M20 1085h250l111 -749h29l110 749h248l-172 -1060q-20 -119 -78.5 -179.5t-193.5 -60.5h-142v215h127q20 0 33.5 9t19.5 40l13 90h-195z" />
<glyph unicode="z" horiz-adv-x="665" d="M51 0v254l326 592v31h-314v206h578v-221l-332 -620v-37h336v-205h-594z" />
<glyph unicode="{" horiz-adv-x="716" d="M27 618v213h98q47 4 47 48v295q0 131 61.5 195.5t215.5 64.5h118v-217h-100q-45 0 -45 -48v-301q0 -37 -15.5 -71.5t-39.5 -65.5v-18q25 -29 40 -60.5t15 -66.5v-328q0 -18 9 -30.5t34 -12.5h102v-215h-118q-154 0 -215.5 59.5t-61.5 198.5v317q0 43 -47 43h-98z" />
<glyph unicode="|" horiz-adv-x="616" d="M190 -215v1751h236v-1751h-236z" />
<glyph unicode="}" horiz-adv-x="716" d="M150 0v215h102q25 0 34 12.5t9 30.5v328q0 35 15.5 66.5t39.5 60.5v18q-55 63 -55 137v301q0 47 -45 48h-100v217h118q154 0 215.5 -64.5t61.5 -195.5v-295q0 -47 55 -48h90v-213h-98q-47 0 -47 -43v-317q0 -139 -61.5 -198.5t-215.5 -59.5h-118z" />
<glyph unicode="~" horiz-adv-x="921" d="M20 520l93 170q45 82 100 126t129 44q23 0 50.5 -4t51.5 -18l76 -43q23 -14 38 -18.5t30 -4.5q10 0 22.5 7t18.5 22l24 51h248l-63 -150q-86 -172 -230 -172q-29 0 -53.5 2.5t-50.5 18.5l-80 47q-16 10 -27.5 15t-25.5 5q-33 0 -47 -30l-37 -68h-267z" />
<glyph unicode="&#xa1;" horiz-adv-x="526" d="M143 -215v1044h240v-1044h-240zM143 971v248h240v-248h-240z" />
<glyph unicode="&#xa2;" d="M119 195v659q0 104 47 157.5t133 71.5v207h236v-203q98 -16 142 -66t44 -138v-230h-238v197q0 16 -11 28.5t-48 12.5t-52.5 -12.5t-15.5 -28.5v-621q0 -12 13.5 -23t48.5 -11q37 0 51 12t14 22v201h238v-219q0 -86 -44 -139.5t-142 -71.5v-205h-236v205q-86 16 -133 62.5 t-47 132.5z" />
<glyph unicode="&#xa3;" d="M25 602v213h106v383q0 131 72.5 188.5t245.5 57.5q90 0 151.5 -15.5t98 -46t53 -75.5t16.5 -105v-225h-252v184q0 35 -17.5 48.5t-49.5 13.5q-33 0 -49.5 -12.5t-16.5 -47.5v-348h133v-213h-133v-381h385v-221h-637v602h-106z" />
<glyph unicode="&#xa5;" d="M27 1434h264l117 -531h22l121 531h264l-153 -531h96v-213h-158l-49 -166h207v-213h-209v-311h-252v311h-215v213h215l-49 166h-166v213h102z" />
<glyph unicode="&#xa6;" horiz-adv-x="616" d="M190 -215v747h236v-747h-236zM190 801v735h236v-735h-236z" />
<glyph unicode="&#xa7;" d="M82 37v196h250v-159q0 -45 16.5 -61.5t69.5 -16.5q47 0 64.5 16.5t17.5 61.5v45q0 29 -6.5 43t-16.5 26l-280 256q-51 47 -79 95.5t-28 119.5v95q0 84 74 145v29q-35 39 -54.5 85t-19.5 132v37q0 141 76 201.5t256 60.5q98 0 162.5 -14.5t101.5 -45t52.5 -79t15.5 -115.5 v-141h-252v110q0 37 -17.5 50.5t-62.5 13.5q-49 0 -64.5 -13.5t-15.5 -50.5q0 -39 6 -51t17 -25l301 -292q18 -20 34.5 -40t29.5 -43.5t20.5 -54t7.5 -71.5v-115q0 -35 -17.5 -62.5t-46.5 -52.5v-24q27 -35 42.5 -82t15.5 -113v-96q0 -72 -16.5 -121t-55.5 -81t-102.5 -46 t-155.5 -14q-102 0 -168 14t-104.5 46t-53 81t-14.5 121zM342 680q0 -23 8 -34t19 -21l137 -123v69q0 33 -6 44.5t-17 21.5l-139 125q-2 -2 -2 -6v-76z" />
<glyph unicode="&#xa8;" horiz-adv-x="907" d="M164 1208v164h239v-164h-239zM504 1208v164h239v-164h-239z" />
<glyph unicode="&#xa9;" horiz-adv-x="1343" d="M113 412v610q0 209 141 315.5t420 106.5t418 -106.5t139 -315.5v-610q0 -209 -139.5 -315.5t-417.5 -106.5q-279 0 -420 106.5t-141 315.5zM352 406q0 -104 87 -151.5t235 -47.5q143 0 231 47t88 152v622q0 104 -86 150.5t-233 46.5t-234.5 -46t-87.5 -151v-622zM479 467 v485q0 66 37 104t150 38t151.5 -38t38.5 -104v-182h-164v156q0 18 -24 18q-25 0 -25 -18v-430q0 -18 25 -19q25 0 24 19v161h164v-190q0 -66 -39 -102.5t-151 -36.5q-113 0 -150 36.5t-37 102.5z" />
<glyph unicode="&#xaa;" horiz-adv-x="516" d="M82 971v98q0 57 29.5 86t76.5 51l97 47v45q0 12 -25 13q-23 0 -22 -15v-39h-150v56q0 76 39 103.5t139 27.5q96 0 132 -26.5t36 -110.5v-478h-198q-154 1 -154 142zM231 979q0 -14 17 -14h37v137l-33 -17q-14 -8 -17.5 -15t-3.5 -17v-74z" />
<glyph unicode="&#xab;" horiz-adv-x="1036" d="M82 475v254l436 426v-297l-239 -227v-60l239 -225v-297zM518 475v254l436 426v-297l-239 -227v-60l239 -225v-297z" />
<glyph unicode="&#xac;" horiz-adv-x="819" d="M82 504v213h655v-436h-225v223h-430z" />
<glyph unicode="&#xad;" horiz-adv-x="567" d="M82 504v213h403v-213h-403z" />
<glyph unicode="&#xae;" horiz-adv-x="1343" d="M113 412v610q0 209 141 315.5t420 106.5t418 -106.5t139 -315.5v-610q0 -209 -139.5 -315.5t-417.5 -106.5q-279 0 -420 106.5t-141 315.5zM352 406q0 -104 87 -151.5t235 -47.5q143 0 231 47t88 152v622q0 104 -86 150.5t-233 46.5t-234.5 -46t-87.5 -151v-622zM475 334 v753h238q61 0 107 -27.5t46 -107.5v-174q0 -43 -20.5 -73.5t-38.5 -45.5l74 -325h-166l-66 295h-8v-295h-166zM641 780h49q10 0 10 11v137q0 10 -10 10h-49v-158z" />
<glyph unicode="&#xaf;" horiz-adv-x="778" d="M82 1208v164h614v-164h-614z" />
<glyph unicode="&#xb0;" horiz-adv-x="591" d="M82 1149v166q0 63 28.5 91t94.5 28h184q66 0 93.5 -28t27.5 -91v-166q0 -63 -27.5 -91t-93.5 -28h-184q-66 0 -94.5 28t-28.5 91zM233 1190q0 -18 19 -19h88q20 0 20 19v82q0 20 -20 20h-88q-18 0 -19 -20v-82z" />
<glyph unicode="&#xb1;" horiz-adv-x="819" d="M82 98v213h655v-213h-655zM82 504v213h215v219h225v-219h215v-213h-215v-101h-225v101h-215z" />
<glyph unicode="&#xb2;" horiz-adv-x="485" d="M80 831v164q0 41 16.5 63.5t34.5 41.5l117 112q12 12 12 25v57q0 4 -6 7.5t-12 3.5t-12.5 -3.5t-6.5 -7.5v-59h-143v80q0 127 166 127q72 0 116 -33t44 -98v-74q0 -45 -15.5 -73.5t-40.5 -53.5l-114 -100q-14 -12 -15 -35h185v-144h-326z" />
<glyph unicode="&#xb3;" horiz-adv-x="497" d="M74 946v86h151v-53q0 -18 21 -18q23 0 22 18v90h-84v145h82v66q0 23 -20 23t-21 -23v-31h-151v70q0 55 42 89t128 34t128 -34t42 -89v-121q0 -16 -6.5 -29.5t-24.5 -19.5v-8q33 -14 33 -43v-152q0 -55 -47 -90t-125 -35q-82 0 -126 35t-44 90z" />
<glyph unicode="&#xb4;" horiz-adv-x="786" d="M205 1208v41l164 123h225v-41l-166 -123h-223z" />
<glyph unicode="&#xb5;" d="M109 -215v1300h237v-831q0 -59 60 -59q35 0 61 22q14 8 27 25v843h237v-1085h-233v39h-17q-14 -10 -48 -22.5t-87 -16.5v-215h-237z" />
<glyph unicode="&#x3bc;" d="M109 -215v1300h237v-831q0 -59 60 -59q35 0 61 22q14 8 27 25v843h237v-1085h-233v39h-17q-14 -10 -48 -22.5t-87 -16.5v-215h-237z" />
<glyph unicode="&#xb6;" horiz-adv-x="1208" d="M61 852v352q0 68 21.5 112t57.5 69.5t85 37t105 11.5h755v-1649h-251v1427h-123v-1427h-252v809h-144q-129 0 -191.5 70.5t-62.5 187.5zM313 870q0 -53 43 -53h103v395h-92q-23 0 -38.5 -11t-15.5 -40v-291z" />
<glyph unicode="&#xb7;" horiz-adv-x="407" d="M82 485v252h244v-252h-244z" />
<glyph unicode="&#xb8;" horiz-adv-x="540" d="M164 -215l26 94h52q23 0 22 23q0 4 -2 14t-6 21l-27 63h111l22 -55q10 -29 12.5 -43.5t2.5 -28.5q0 -47 -21.5 -67.5t-74.5 -20.5h-117z" />
<glyph unicode="&#xb9;" horiz-adv-x="413" d="M86 1290v146h240v-598h-150v452h-90z" />
<glyph unicode="&#xba;" horiz-adv-x="563" d="M82 1014v239q0 104 43 147.5t156 43.5q115 0 157.5 -42t42.5 -149v-239q0 -106 -48 -149.5t-152 -43.5q-117 0 -158 41t-41 152zM227 1024q0 -61 52 -61q29 0 40 15t11 46v217q0 31 -11.5 45t-39.5 14q-51 0 -52 -59v-217z" />
<glyph unicode="&#xbb;" horiz-adv-x="1036" d="M82 49v297l240 225v60l-240 227v297l436 -426v-254zM518 49v297l240 225v60l-240 227v297l436 -426v-254z" />
<glyph unicode="&#xbc;" horiz-adv-x="841" d="M0 1290v146h240v-598h-150v452h-90zM78 0l532 1434h148l-531 -1434h-149zM459 139v119l149 340h162l-139 -313h59v63h150v-348h-150v139h-231z" />
<glyph unicode="&#xbd;" d="M0 1288v146h242v-598h-150v452h-92zM57 0l533 1434h147l-530 -1434h-150zM514 0v164q0 41 17.5 64.5t33.5 39.5l117 113q12 12 12 25v49q0 10 -6 14t-12 4t-12.5 -4t-6.5 -14v-52h-143v80q0 127 166 127q72 0 116 -32.5t44 -98.5v-73q0 -45 -15.5 -75t-40.5 -52 l-116 -103q-10 -8 -11.5 -15t-1.5 -18h185v-143h-326z" />
<glyph unicode="&#xbe;" d="M0 946v86h152v-53q0 -18 20 -18q23 0 23 18v90h-84v145h82v66q0 23 -21 23q-20 0 -20 -23v-31h-152v70q0 55 42 89t128 34t128 -34t42 -89v-121q0 -16 -6 -29.5t-25 -19.5v-8q33 -14 33 -43v-152q0 -55 -47 -90t-125 -35q-82 0 -126 35t-44 90zM98 0l533 1434h147 l-530 -1434h-150zM457 139v119l149 340h162l-137 -313h59v63h150v-348h-150v139h-233z" />
<glyph unicode="&#xbf;" horiz-adv-x="849" d="M102 20v203q0 90 30 139.5t73 96.5l84 80q16 16 21 38.5t5 57.5v194h240v-208q0 -39 -6 -66t-17.5 -49.5t-28 -43t-36.5 -44.5l-100 -117q-16 -16 -21.5 -30.5t-5.5 -55.5v-197q0 -16 15.5 -29.5t68.5 -13.5t68.5 13.5t15.5 29.5v256h240v-264q0 -117 -75 -176t-249 -59 q-322 -1 -322 245zM315 971v248h240v-248h-240z" />
<glyph unicode="&#xc0;" horiz-adv-x="923" d="M37 0l196 1434h453l201 -1434h-254l-51 381h-242l-51 -381h-252zM369 602h182l-68 584h-41zM225 1638v41h225l164 -123v-41h-223z" />
<glyph unicode="&#xc1;" horiz-adv-x="923" d="M37 0l196 1434h453l201 -1434h-254l-51 381h-242l-51 -381h-252zM369 602h182l-68 584h-41zM301 1515v41l164 123h225v-41l-166 -123h-223z" />
<glyph unicode="&#xc2;" horiz-adv-x="923" d="M37 0l196 1434h453l201 -1434h-254l-51 381h-242l-51 -381h-252zM369 602h182l-68 584h-41zM182 1515v41l164 123h230l163 -123v-41h-223l-55 52l-55 -52h-224z" />
<glyph unicode="&#xc3;" horiz-adv-x="923" d="M37 0l196 1434h453l201 -1434h-254l-51 381h-242l-51 -381h-252zM369 602h182l-68 584h-41zM100 1515v41l164 123h229l51 -49l54 49h225v-41l-166 -123h-223l-56 52l-55 -52h-223z" />
<glyph unicode="&#xc4;" horiz-adv-x="923" d="M37 0l196 1434h453l201 -1434h-254l-51 381h-242l-51 -381h-252zM369 602h182l-68 584h-41zM172 1515v164h239v-164h-239zM512 1515v164h239v-164h-239z" />
<glyph unicode="&#xc5;" horiz-adv-x="923" d="M37 0l196 1434v161q0 49 21.5 71t75.5 22h262q49 0 71.5 -21.5t22.5 -71.5v-161l201 -1434h-254l-51 381h-242l-51 -381h-252zM369 602h182l-68 584h-41zM391 1450q0 -4 4 -10t17 -6h100q16 4 16 16v78q0 4 -4 10t-18 6h-94q-12 0 -16.5 -6t-4.5 -10v-78z" />
<glyph unicode="&#xc6;" horiz-adv-x="1163" d="M37 0l229 1434h830v-222h-330v-358h319v-221h-319v-412h330v-221h-582v381h-168l-55 -381h-254zM379 602h135v610h-41z" />
<glyph unicode="&#xc7;" horiz-adv-x="866" d="M109 231v971q0 57 14 102.5t51 76t101.5 47t166.5 16.5t168 -16.5t103 -47t51 -75.5t14 -103v-325h-252v280q0 37 -21.5 51.5t-62.5 14.5q-39 0 -61.5 -14.5t-22.5 -51.5v-881q0 -37 22.5 -51t61.5 -14q41 0 62.5 14.5t21.5 50.5v295h252v-340q0 -57 -14 -102t-51 -75.5 t-102.5 -47t-168.5 -16.5q-102 0 -166.5 16.5t-101.5 47t-51 75.5t-14 102zM318 -215l26 94h52q23 0 22 23q0 4 -2 14t-6 21l-27 63h111l22 -55q10 -29 12.5 -43.5t2.5 -28.5q0 -47 -21.5 -67.5t-74.5 -20.5h-117z" />
<glyph unicode="&#xc8;" horiz-adv-x="757" d="M109 0v1434h581v-222h-330v-358h320v-221h-320v-412h330v-221h-581zM105 1638v41h225l164 -123v-41h-223z" />
<glyph unicode="&#xc9;" horiz-adv-x="757" d="M109 0v1434h581v-222h-330v-358h320v-221h-320v-412h330v-221h-581zM305 1515v41l164 123h225v-41l-166 -123h-223z" />
<glyph unicode="&#xca;" horiz-adv-x="757" d="M109 0v1434h581v-222h-330v-358h320v-221h-320v-412h330v-221h-581zM116 1515v41l164 123h230l163 -123v-41h-223l-55 52l-55 -52h-224z" />
<glyph unicode="&#xcb;" horiz-adv-x="757" d="M109 0v1434h581v-222h-330v-358h320v-221h-320v-412h330v-221h-581zM111 1515v164h239v-164h-239zM451 1515v164h239v-164h-239z" />
<glyph unicode="&#xcc;" horiz-adv-x="468" d="M109 0v1434h251v-1434h-251zM-26 1638v41h225l164 -123v-41h-223z" />
<glyph unicode="&#xcd;" horiz-adv-x="468" d="M109 0v1434h251v-1434h-251zM109 1515v41l164 123h225v-41l-166 -123h-223z" />
<glyph unicode="&#xce;" horiz-adv-x="468" d="M109 0v1434h251v-1434h-251zM-41 1515v41l164 123h230l163 -123v-41h-223l-55 52l-55 -52h-224z" />
<glyph unicode="&#xcf;" horiz-adv-x="509" d="M129 0v1434h251v-1434h-251zM-33 1515v164h239v-164h-239zM307 1515v164h239v-164h-239z" />
<glyph unicode="&#xd0;" horiz-adv-x="929" d="M27 614v213h102v607h442q82 0 131.5 -19.5t76 -54.5t34.5 -85t8 -114v-889q0 -61 -8 -111t-34.5 -86t-76 -55.5t-131.5 -19.5h-442v614h-102zM381 221h147q25 0 33 10.5t8 32.5v907q0 23 -8 32t-33 9h-147v-385h102v-213h-102v-393z" />
<glyph unicode="&#xd1;" horiz-adv-x="1095" d="M109 0v1434h415l207 -1131h23v1131h233v-1434h-395l-221 1169h-29v-1169h-233zM180 1515v41l164 123h229l51 -49l54 49h225v-41l-166 -123h-223l-56 52l-55 -52h-223z" />
<glyph unicode="&#xd2;" horiz-adv-x="923" d="M109 272v891q0 82 18 136.5t60 87t108.5 45t165.5 12.5q98 0 165.5 -12.5t109.5 -45t60.5 -87t18.5 -136.5v-891q0 -84 -18.5 -138t-60.5 -86t-109.5 -45t-165.5 -13t-165 13t-109 45t-60 86t-18 138zM360 295q0 -43 21.5 -63.5t79.5 -20.5q59 0 79.5 20.5t20.5 63.5v844 q0 43 -20.5 63.5t-79.5 20.5q-57 0 -79 -20.5t-22 -63.5v-844zM225 1638v41h225l164 -123v-41h-223z" />
<glyph unicode="&#xd3;" horiz-adv-x="923" d="M109 272v891q0 82 18 136.5t60 87t108.5 45t165.5 12.5q98 0 165.5 -12.5t109.5 -45t60.5 -87t18.5 -136.5v-891q0 -84 -18.5 -138t-60.5 -86t-109.5 -45t-165.5 -13t-165 13t-109 45t-60 86t-18 138zM360 295q0 -43 21.5 -63.5t79.5 -20.5q59 0 79.5 20.5t20.5 63.5v844 q0 43 -20.5 63.5t-79.5 20.5q-57 0 -79 -20.5t-22 -63.5v-844zM307 1515v41l164 123h225v-41l-166 -123h-223z" />
<glyph unicode="&#xd4;" horiz-adv-x="923" d="M109 272v891q0 82 18 136.5t60 87t108.5 45t165.5 12.5q98 0 165.5 -12.5t109.5 -45t60.5 -87t18.5 -136.5v-891q0 -84 -18.5 -138t-60.5 -86t-109.5 -45t-165.5 -13t-165 13t-109 45t-60 86t-18 138zM360 295q0 -43 21.5 -63.5t79.5 -20.5q59 0 79.5 20.5t20.5 63.5v844 q0 43 -20.5 63.5t-79.5 20.5q-57 0 -79 -20.5t-22 -63.5v-844zM182 1515v41l164 123h230l163 -123v-41h-223l-55 52l-55 -52h-224z" />
<glyph unicode="&#xd5;" horiz-adv-x="923" d="M109 272v891q0 82 18 136.5t60 87t108.5 45t165.5 12.5q98 0 165.5 -12.5t109.5 -45t60.5 -87t18.5 -136.5v-891q0 -84 -18.5 -138t-60.5 -86t-109.5 -45t-165.5 -13t-165 13t-109 45t-60 86t-18 138zM360 295q0 -43 21.5 -63.5t79.5 -20.5q59 0 79.5 20.5t20.5 63.5v844 q0 43 -20.5 63.5t-79.5 20.5q-57 0 -79 -20.5t-22 -63.5v-844zM100 1515v41l164 123h229l51 -49l54 49h225v-41l-166 -123h-223l-56 52l-55 -52h-223z" />
<glyph unicode="&#xd6;" horiz-adv-x="923" d="M109 272v891q0 82 18 136.5t60 87t108.5 45t165.5 12.5q98 0 165.5 -12.5t109.5 -45t60.5 -87t18.5 -136.5v-891q0 -84 -18.5 -138t-60.5 -86t-109.5 -45t-165.5 -13t-165 13t-109 45t-60 86t-18 138zM360 295q0 -43 21.5 -63.5t79.5 -20.5q59 0 79.5 20.5t20.5 63.5v844 q0 43 -20.5 63.5t-79.5 20.5q-57 0 -79 -20.5t-22 -63.5v-844zM172 1515v164h239v-164h-239zM512 1515v164h239v-164h-239z" />
<glyph unicode="&#xd7;" d="M106 770l160 160l154 -154l151 152l160 -158l-153 -154l151 -149l-160 -160l-151 150l-152 -152l-157 160l151 151z" />
<glyph unicode="&#xd8;" horiz-adv-x="923" d="M109 272v891q0 82 18 136.5t60 87t108.5 45t165.5 12.5q98 0 165.5 -12.5t109.5 -45t60.5 -87t18.5 -136.5v-891q0 -84 -18.5 -138t-60.5 -86t-109.5 -45t-165.5 -13t-165 13t-109 45t-60 86t-18 138zM360 295q0 -45 21.5 -64.5t79.5 -19.5q59 0 79.5 19.5t20.5 64.5v483 l-201 -469v-14zM360 655l201 471v13q0 45 -20.5 64.5t-79.5 19.5q-57 0 -79 -19.5t-22 -64.5v-484z" />
<glyph unicode="&#xd9;" horiz-adv-x="911" d="M109 272v1162h251v-1139q0 -47 19.5 -65.5t77.5 -18.5q55 0 73.5 18.5t18.5 65.5v1139h254v-1162q0 -68 -14.5 -120t-53.5 -88.5t-106.5 -55t-171.5 -18.5q-106 0 -174 18.5t-107 55t-53 88.5t-14 120zM199 1638v41h225l164 -123v-41h-223z" />
<glyph unicode="&#xda;" horiz-adv-x="911" d="M109 272v1162h251v-1139q0 -47 19.5 -65.5t77.5 -18.5q55 0 73.5 18.5t18.5 65.5v1139h254v-1162q0 -68 -14.5 -120t-53.5 -88.5t-106.5 -55t-171.5 -18.5q-106 0 -174 18.5t-107 55t-53 88.5t-14 120zM322 1515v41l164 123h225v-41l-166 -123h-223z" />
<glyph unicode="&#xdb;" horiz-adv-x="911" d="M109 272v1162h251v-1139q0 -47 19.5 -65.5t77.5 -18.5q55 0 73.5 18.5t18.5 65.5v1139h254v-1162q0 -68 -14.5 -120t-53.5 -88.5t-106.5 -55t-171.5 -18.5q-106 0 -174 18.5t-107 55t-53 88.5t-14 120zM178 1515v41l164 123h230l163 -123v-41h-223l-55 52l-55 -52h-224z " />
<glyph unicode="&#xdc;" horiz-adv-x="911" d="M109 272v1162h251v-1139q0 -47 19.5 -65.5t77.5 -18.5q55 0 73.5 18.5t18.5 65.5v1139h254v-1162q0 -68 -14.5 -120t-53.5 -88.5t-106.5 -55t-171.5 -18.5q-106 0 -174 18.5t-107 55t-53 88.5t-14 120zM166 1515v164h239v-164h-239zM506 1515v164h239v-164h-239z" />
<glyph unicode="&#xdd;" horiz-adv-x="870" d="M45 1434h256l120 -529h25l123 529h256l-262 -891v-543h-252v547zM260 1515v41l164 123h225v-41l-166 -123h-223z" />
<glyph unicode="&#xde;" horiz-adv-x="845" d="M109 0l2 1434h249v-349h170q55 0 104.5 -11t85.5 -36.5t57.5 -69.5t21.5 -112v-311q0 -117 -62.5 -186.5t-191.5 -69.5h-185v-289h-251zM360 510h144q43 0 43 53v250q0 29 -15.5 40t-37.5 11h-134v-354z" />
<glyph unicode="&#xdf;" horiz-adv-x="1077" d="M113 0v1190q0 57 13 104t51 81t108.5 51.5t185.5 17.5t188.5 -14.5t116.5 -47t59.5 -84t16.5 -127.5v-34q0 -92 -36 -139.5t-83 -73.5l-63 -35q-14 -8 -20.5 -18.5t-6.5 -34.5v-39q0 -27 7 -37t28 -25l207 -145q57 -41 83.5 -84t26.5 -115v-160q0 -113 -75.5 -172 t-225.5 -59h-284v205h284q63 0 64 53v113q0 23 -7.5 36t-27.5 27l-219 154q-23 14 -40.5 30.5t-29.5 38t-18 52t-6 75.5v78q0 72 18 108t66 66l98 64q12 8 20.5 18t8.5 31v25q0 35 -29 50t-115 15q-78 0 -103.5 -17.5t-25.5 -60.5v-1161h-235z" />
<glyph unicode="&#xe0;" horiz-adv-x="815" d="M92 233v187q0 49 12.5 85t36 62.5t58 47t80.5 40.5l206 97v84q0 20 -10 37.5t-57 17.5q-55 0 -65.5 -17.5t-10.5 -37.5v-68h-242v111q0 51 15.5 92t52.5 68.5t98.5 42t153.5 14.5q86 0 144.5 -15.5t94 -44t50 -70.5t14.5 -96v-870h-234v43h-16q-16 -12 -54 -32.5 t-108 -20.5q-111 0 -165 63t-54 180zM332 254q0 -35 17.5 -47t49.5 -12q25 0 48.5 12t37.5 35v276l-104 -49q-35 -16 -42 -27.5t-7 -46.5v-141zM178 1331v41h225l164 -123v-41h-223z" />
<glyph unicode="&#xe1;" horiz-adv-x="815" d="M92 233v187q0 49 12.5 85t36 62.5t58 47t80.5 40.5l206 97v84q0 20 -10 37.5t-57 17.5q-55 0 -65.5 -17.5t-10.5 -37.5v-68h-242v111q0 51 15.5 92t52.5 68.5t98.5 42t153.5 14.5q86 0 144.5 -15.5t94 -44t50 -70.5t14.5 -96v-870h-234v43h-16q-16 -12 -54 -32.5 t-108 -20.5q-111 0 -165 63t-54 180zM332 254q0 -35 17.5 -47t49.5 -12q25 0 48.5 12t37.5 35v276l-104 -49q-35 -16 -42 -27.5t-7 -46.5v-141zM275 1208v41l164 123h225v-41l-166 -123h-223z" />
<glyph unicode="&#xe2;" horiz-adv-x="815" d="M92 233v187q0 49 12.5 85t36 62.5t58 47t80.5 40.5l206 97v84q0 20 -10 37.5t-57 17.5q-55 0 -65.5 -17.5t-10.5 -37.5v-68h-242v111q0 51 15.5 92t52.5 68.5t98.5 42t153.5 14.5q86 0 144.5 -15.5t94 -44t50 -70.5t14.5 -96v-870h-234v43h-16q-16 -12 -54 -32.5 t-108 -20.5q-111 0 -165 63t-54 180zM332 254q0 -35 17.5 -47t49.5 -12q25 0 48.5 12t37.5 35v276l-104 -49q-35 -16 -42 -27.5t-7 -46.5v-141zM129 1208v41l164 123h230l163 -123v-41h-223l-55 52l-55 -52h-224z" />
<glyph unicode="&#xe3;" horiz-adv-x="815" d="M92 233v187q0 49 12.5 85t36 62.5t58 47t80.5 40.5l206 97v84q0 20 -10 37.5t-57 17.5q-55 0 -65.5 -17.5t-10.5 -37.5v-68h-242v111q0 51 15.5 92t52.5 68.5t98.5 42t153.5 14.5q86 0 144.5 -15.5t94 -44t50 -70.5t14.5 -96v-870h-234v43h-16q-16 -12 -54 -32.5 t-108 -20.5q-111 0 -165 63t-54 180zM332 254q0 -35 17.5 -47t49.5 -12q25 0 48.5 12t37.5 35v276l-104 -49q-35 -16 -42 -27.5t-7 -46.5v-141zM45 1208v41l164 123h229l51 -49l54 49h225v-41l-166 -123h-223l-56 52l-55 -52h-223z" />
<glyph unicode="&#xe4;" horiz-adv-x="815" d="M92 233v187q0 49 12.5 85t36 62.5t58 47t80.5 40.5l206 97v84q0 20 -10 37.5t-57 17.5q-55 0 -65.5 -17.5t-10.5 -37.5v-68h-242v111q0 51 15.5 92t52.5 68.5t98.5 42t153.5 14.5q86 0 144.5 -15.5t94 -44t50 -70.5t14.5 -96v-870h-234v43h-16q-16 -12 -54 -32.5 t-108 -20.5q-111 0 -165 63t-54 180zM332 254q0 -35 17.5 -47t49.5 -12q25 0 48.5 12t37.5 35v276l-104 -49q-35 -16 -42 -27.5t-7 -46.5v-141zM121 1208v164h239v-164h-239zM461 1208v164h239v-164h-239z" />
<glyph unicode="&#xe5;" horiz-adv-x="815" d="M92 233v187q0 49 12.5 85t36 62.5t58 47t80.5 40.5l206 97v84q0 20 -10 37.5t-57 17.5q-55 0 -65.5 -17.5t-10.5 -37.5v-68h-242v111q0 51 15.5 92t52.5 68.5t98.5 42t153.5 14.5q86 0 144.5 -15.5t94 -44t50 -70.5t14.5 -96v-870h-234v43h-16q-16 -12 -54 -32.5 t-108 -20.5q-111 0 -165 63t-54 180zM332 254q0 -35 17.5 -47t49.5 -12q25 0 48.5 12t37.5 35v276l-104 -49q-35 -16 -42 -27.5t-7 -46.5v-141zM267.105 1231.83v116.103q0 44.1016 19.3506 63.4521t67.0518 19.3506h129.604q44.1016 0 64.3516 -19.3506 q20.251 -19.3506 20.251 -63.4521v-116.103q0 -44.1016 -20.251 -63.9023q-20.25 -19.7998 -64.3516 -19.7998h-129.604q-47.7012 0 -67.0518 19.7998q-19.3506 19.8008 -19.3506 63.9023zM374.208 1258.83q0 -12.6006 12.6006 -12.6006h61.2012q14.4004 0 14.4004 12.6006 v59.4014q0 12.6006 -14.4004 12.6006h-61.2012q-12.6006 0 -12.6006 -12.6006v-59.4014z" />
<glyph unicode="&#xe6;" horiz-adv-x="1196" d="M92 233v187q0 49 12.5 85t36 62.5t58 47t80.5 40.5l206 97v84q0 20 -10 37.5t-57 17.5q-55 0 -65.5 -17.5t-10.5 -37.5v-68h-242v111q0 51 15.5 92t52.5 68.5t98.5 42t153.5 14.5q63 0 109 -14.5t81 -37.5q76 51 181 52q70 0 128 -11.5t99 -39t63.5 -74.5t22.5 -117v-399 h-389v-201q0 -25 14 -42t62 -17q45 0 59 17t14 42v94h240v-115q0 -72 -22.5 -118.5t-63.5 -74.5t-99.5 -39t-127.5 -11q-88 0 -153 16.5t-103 61.5h-17q-33 -33 -77 -55.5t-130 -22.5q-111 0 -165 63t-54 180zM332 254q0 -35 17.5 -47t49.5 -12q35 0 62 22q14 8 24 25v266 l-104 -49q-35 -16 -42 -29.5t-7 -40.5v-135zM715 672h149v162q0 25 -14 41t-59 16q-47 0 -61.5 -26.5t-14.5 -51.5v-141z" />
<glyph unicode="&#xe7;" horiz-adv-x="802" d="M92 195v659q0 70 24.5 117t67.5 74.5t102.5 39t131.5 11.5q293 0 293 -213v-230h-238v176q0 33 -15.5 47.5t-51.5 14.5q-76 0 -76 -62v-579q0 -55 69 -55q74 0 74 55v180h238v-219q0 -106 -75 -163.5t-235 -57.5q-141 0 -225 47t-84 158zM287 -215l26 94h52q23 0 22 23 q0 4 -2 14t-6 21l-27 63h111l22 -55q10 -29 12.5 -43.5t2.5 -28.5q0 -47 -21.5 -67.5t-74.5 -20.5h-117z" />
<glyph unicode="&#xe8;" horiz-adv-x="811" d="M92 233v621q0 70 21.5 117t62.5 74.5t99.5 39t130.5 11.5q70 0 128 -11.5t99 -39t63.5 -74.5t22.5 -117v-399h-389v-201q0 -25 14 -42t62 -17q45 0 59 17t14 42v94h240v-115q0 -72 -22.5 -118.5t-63.5 -74.5t-99.5 -39t-127.5 -11q-72 0 -130.5 11t-99.5 39t-62.5 74.5 t-21.5 118.5zM330 672h149v162q0 25 -14 41t-59 16q-47 0 -61.5 -16.5t-14.5 -40.5v-162zM166 1331v41h225l164 -123v-41h-223z" />
<glyph unicode="&#xe9;" horiz-adv-x="811" d="M92 233v621q0 70 21.5 117t62.5 74.5t99.5 39t130.5 11.5q70 0 128 -11.5t99 -39t63.5 -74.5t22.5 -117v-399h-389v-201q0 -25 14 -42t62 -17q45 0 59 17t14 42v94h240v-115q0 -72 -22.5 -118.5t-63.5 -74.5t-99.5 -39t-127.5 -11q-72 0 -130.5 11t-99.5 39t-62.5 74.5 t-21.5 118.5zM330 672h149v162q0 25 -14 41t-59 16q-47 0 -61.5 -16.5t-14.5 -40.5v-162zM252 1208v41l164 123h225v-41l-166 -123h-223z" />
<glyph unicode="&#xea;" horiz-adv-x="811" d="M92 233v621q0 70 21.5 117t62.5 74.5t99.5 39t130.5 11.5q70 0 128 -11.5t99 -39t63.5 -74.5t22.5 -117v-399h-389v-201q0 -25 14 -42t62 -17q45 0 59 17t14 42v94h240v-115q0 -72 -22.5 -118.5t-63.5 -74.5t-99.5 -39t-127.5 -11q-72 0 -130.5 11t-99.5 39t-62.5 74.5 t-21.5 118.5zM330 672h149v162q0 25 -14 41t-59 16q-47 0 -61.5 -16.5t-14.5 -40.5v-162zM127 1208v41l164 123h230l163 -123v-41h-223l-55 52l-55 -52h-224z" />
<glyph unicode="&#xeb;" horiz-adv-x="811" d="M92 233v621q0 70 21.5 117t62.5 74.5t99.5 39t130.5 11.5q70 0 128 -11.5t99 -39t63.5 -74.5t22.5 -117v-399h-389v-201q0 -25 14 -42t62 -17q45 0 59 17t14 42v94h240v-115q0 -72 -22.5 -118.5t-63.5 -74.5t-99.5 -39t-127.5 -11q-72 0 -130.5 11t-99.5 39t-62.5 74.5 t-21.5 118.5zM330 672h149v162q0 25 -14 41t-59 16q-47 0 -61.5 -16.5t-14.5 -40.5v-162zM119 1208v164h239v-164h-239zM459 1208v164h239v-164h-239z" />
<glyph unicode="&#xec;" horiz-adv-x="423" d="M-55 1331v41h225l164 -123v-41h-223zM92 0v1085h240v-1085h-240z" />
<glyph unicode="&#xed;" horiz-adv-x="423" d="M86 1208v41l164 123h225v-41l-166 -123h-223zM92 0v1085h240v-1085h-240z" />
<glyph unicode="&#xee;" horiz-adv-x="462" d="M-47 1208v41l164 123h229l164 -123v-41h-223l-56 52l-55 -52h-223zM111 0v1085h239v-1085h-239z" />
<glyph unicode="&#xef;" horiz-adv-x="497" d="M129 0v1085h240v-1085h-240zM-39 1208v164h239v-164h-239zM301 1208v164h239v-164h-239z" />
<glyph unicode="&#xf0;" horiz-adv-x="798" d="M70 231v474q0 70 26.5 116.5t71.5 74.5t104.5 39t124.5 11h17l-58 131l-104 -43l-80 197l102 41l-69 162h254l30 -74l107 43l80 -197l-105 -43l113 -262q16 -39 28.5 -95t12.5 -126v-449q0 -72 -26.5 -117.5t-70.5 -73.5t-103.5 -39t-127.5 -11q-66 0 -125 11t-104 39 t-71.5 73.5t-26.5 117.5zM309 246q0 -23 19.5 -39.5t68.5 -16.5q51 0 69.5 16.5t18.5 39.5v446q0 55 -88 56q-49 0 -68.5 -13.5t-19.5 -38.5v-450z" />
<glyph unicode="&#xf1;" horiz-adv-x="823" d="M92 0v1085h234v-38h10q16 10 63 29.5t117 19.5q111 0 163 -63.5t52 -180.5v-852h-239v831q0 31 -18.5 45.5t-47.5 14.5q-27 0 -50.5 -13.5t-45.5 -33.5v-844h-238zM41 1208v41l164 123h229l51 -49l54 49h225v-41l-166 -123h-223l-56 52l-55 -52h-223z" />
<glyph unicode="&#xf2;" horiz-adv-x="815" d="M92 233v621q0 141 83 191.5t233 50.5q147 0 231 -50.5t84 -191.5v-621q0 -72 -21.5 -118.5t-62.5 -74.5t-99.5 -39t-131.5 -11q-74 0 -133.5 11t-99.5 39t-61.5 74.5t-21.5 118.5zM330 258q0 -35 18.5 -49t59.5 -14q39 0 57 14t18 49v571q0 35 -18.5 48.5t-56.5 13.5 q-41 0 -59.5 -13.5t-18.5 -48.5v-571zM189 1331v41h225l164 -123v-41h-223z" />
<glyph unicode="&#xf3;" horiz-adv-x="815" d="M92 233v621q0 141 83 191.5t233 50.5q147 0 231 -50.5t84 -191.5v-621q0 -72 -21.5 -118.5t-62.5 -74.5t-99.5 -39t-131.5 -11q-74 0 -133.5 11t-99.5 39t-61.5 74.5t-21.5 118.5zM330 258q0 -35 18.5 -49t59.5 -14q39 0 57 14t18 49v571q0 35 -18.5 48.5t-56.5 13.5 q-41 0 -59.5 -13.5t-18.5 -48.5v-571zM228 1208v41l164 123h225v-41l-166 -123h-223z" />
<glyph unicode="&#xf4;" horiz-adv-x="815" d="M92 233v621q0 141 83 191.5t233 50.5q147 0 231 -50.5t84 -191.5v-621q0 -72 -21.5 -118.5t-62.5 -74.5t-99.5 -39t-131.5 -11q-74 0 -133.5 11t-99.5 39t-61.5 74.5t-21.5 118.5zM330 258q0 -35 18.5 -49t59.5 -14q39 0 57 14t18 49v571q0 35 -18.5 48.5t-56.5 13.5 q-41 0 -59.5 -13.5t-18.5 -48.5v-571zM122 1208v41l164 123h230l163 -123v-41h-223l-55 52l-55 -52h-224z" />
<glyph unicode="&#xf5;" horiz-adv-x="815" d="M92 233v621q0 141 83 191.5t233 50.5q147 0 231 -50.5t84 -191.5v-621q0 -72 -21.5 -118.5t-62.5 -74.5t-99.5 -39t-131.5 -11q-74 0 -133.5 11t-99.5 39t-61.5 74.5t-21.5 118.5zM330 258q0 -35 18.5 -49t59.5 -14q39 0 57 14t18 49v571q0 35 -18.5 48.5t-56.5 13.5 q-41 0 -59.5 -13.5t-18.5 -48.5v-571zM39 1208v41l164 123h229l51 -49l54 49h225v-41l-166 -123h-223l-56 52l-55 -52h-223z" />
<glyph unicode="&#xf6;" horiz-adv-x="815" d="M92 233v621q0 141 83 191.5t233 50.5q147 0 231 -50.5t84 -191.5v-621q0 -72 -21.5 -118.5t-62.5 -74.5t-99.5 -39t-131.5 -11q-74 0 -133.5 11t-99.5 39t-61.5 74.5t-21.5 118.5zM330 258q0 -35 18.5 -49t59.5 -14q39 0 57 14t18 49v571q0 35 -18.5 48.5t-56.5 13.5 q-41 0 -59.5 -13.5t-18.5 -48.5v-571zM115 1208v164h239v-164h-239zM455 1208v164h239v-164h-239z" />
<glyph unicode="&#xf7;" d="M92 504v213h656v-213h-656zM301 135v244h236v-244h-236zM301 842v243h236v-243h-236z" />
<glyph unicode="&#xf8;" horiz-adv-x="835" d="M90 0l57 113q-39 63 -38 141v600q0 141 79.5 191.5t229.5 50.5q113 0 196 -49l21 38h108l-55 -110q39 -57 39 -141v-601q0 -72 -20.5 -118.5t-60.5 -74.5t-97 -39t-131 -11q-66 0 -115 14t-86 37l-20 -41h-107zM346 238q0 -20 15.5 -31.5t56.5 -11.5q39 0 54 11t15 32 v337l-141 -280v-57zM346 510l141 281v59q0 20 -15 30.5t-54 10.5q-41 0 -56.5 -10.5t-15.5 -30.5v-340z" />
<glyph unicode="&#xf9;" horiz-adv-x="819" d="M92 233v852h240v-831q0 -59 63 -59q25 0 47.5 12t46.5 35v843h238v-1085h-233v49h-13q-14 -16 -59 -37.5t-115 -21.5q-111 0 -163 63t-52 180zM162 1331v41h225l164 -123v-41h-223z" />
<glyph unicode="&#xfa;" horiz-adv-x="819" d="M92 233v852h240v-831q0 -59 63 -59q25 0 47.5 12t46.5 35v843h238v-1085h-233v49h-13q-14 -16 -59 -37.5t-115 -21.5q-111 0 -163 63t-52 180zM262 1208v41l164 123h225v-41l-166 -123h-223z" />
<glyph unicode="&#xfb;" horiz-adv-x="819" d="M92 233v852h240v-831q0 -59 63 -59q25 0 47.5 12t46.5 35v843h238v-1085h-233v49h-13q-14 -16 -59 -37.5t-115 -21.5q-111 0 -163 63t-52 180zM137 1208v41l164 123h230l163 -123v-41h-223l-55 52l-55 -52h-224z" />
<glyph unicode="&#xfc;" horiz-adv-x="806" d="M80 233v852h239v-831q0 -59 64 -59q25 0 47.5 12t46.5 35v843h238v-1085h-234v49h-12q-14 -16 -59 -37.5t-115 -21.5q-111 0 -163 63t-52 180zM92 1208v164h240v-164h-240zM475 1208v164h240v-164h-240z" />
<glyph unicode="&#xfd;" horiz-adv-x="790" d="M20 1085h250l111 -749h29l110 749h248l-172 -1060q-20 -119 -78.5 -179.5t-193.5 -60.5h-142v215h127q20 0 33.5 9t19.5 40l13 90h-195zM260 1208v41l164 123h225v-41l-166 -123h-223z" />
<glyph unicode="&#xfe;" horiz-adv-x="827" d="M92 -215v1649h238v-392h12q16 14 60 34t114 20q111 0 165 -63.5t54 -180.5v-619q0 -117 -54 -180t-165 -63q-66 0 -113 21.5t-63 37.5h-10v-264h-238zM330 242q18 -18 40.5 -32.5t51.5 -14.5q33 0 53.5 12t20.5 47v577q0 35 -20.5 47.5t-53.5 12.5q-29 0 -49.5 -15.5 t-42.5 -31.5v-602z" />
<glyph unicode="&#xff;" horiz-adv-x="788" d="M20 1085h250l111 -749h29l110 749h248l-172 -1060q-20 -119 -78.5 -179.5t-193.5 -60.5h-142v215h127q20 0 33.5 9t19.5 40l13 90h-195zM107 1208v164h239v-164h-239zM447 1208v164h239v-164h-239z" />
<glyph unicode="&#x131;" horiz-adv-x="423" d="M92 0v1085h240v-1085h-240z" />
<glyph unicode="&#x152;" horiz-adv-x="1189" d="M109 283v870q0 82 18 136t60 87t108.5 45.5t165.5 12.5h661v-222h-309v-358h299v-221h-299v-412h309v-221h-661q-98 0 -165 13.5t-109 45t-60 86t-18 138.5zM360 305q0 -43 21.5 -63.5t79.5 -20.5h100v991h-100q-57 0 -79 -20.5t-22 -63.5v-823z" />
<glyph unicode="&#x153;" horiz-adv-x="1179" d="M92 233v621q0 141 80 191.5t229 50.5q57 0 103.5 -17.5t81.5 -44.5q78 61 188 62q70 0 128.5 -11.5t99 -39t63 -74.5t22.5 -117v-399h-389v-211q2 -23 18.5 -36t57.5 -13q45 0 59.5 17t14.5 42v94h239v-115q0 -72 -22.5 -118.5t-63 -74.5t-99 -39t-128.5 -11 q-57 0 -104 16.5t-84 42.5q-35 -27 -81 -43t-104 -16q-74 0 -132 11t-97 39t-59.5 74.5t-20.5 118.5zM330 238q0 -20 15 -31.5t56 -11.5q68 0 70 38v617q0 20 -15.5 30.5t-54.5 10.5q-41 0 -56 -10.5t-15 -30.5v-612zM698 672h150v162q0 25 -14.5 41t-59.5 16 q-41 0 -57.5 -13.5t-18.5 -35.5v-170z" />
<glyph unicode="&#x178;" horiz-adv-x="841" d="M31 1434h256l120 -529h25l123 529h256l-262 -891v-543h-252v547zM133 1515v164h239v-164h-239zM473 1515v164h239v-164h-239z" />
<glyph unicode="&#x2c6;" horiz-adv-x="786" d="M102 1208v41l164 123h230l163 -123v-41h-223l-55 52l-55 -52h-224z" />
<glyph unicode="&#x2da;" horiz-adv-x="768" d="M219 1262v129q0 49 21.5 70.5t74.5 21.5h144q49 0 71.5 -21.5t22.5 -70.5v-129q0 -49 -22.5 -71t-71.5 -22h-144q-53 0 -74.5 22t-21.5 71zM338 1292q0 -14 14 -14h68q16 0 16 14v66q0 14 -16 14h-68q-14 0 -14 -14v-66z" />
<glyph unicode="&#x2dc;" horiz-adv-x="786" d="M37 1208v41l164 123h229l51 -49l54 49h225v-41l-166 -123h-223l-56 52l-55 -52h-223z" />
<glyph unicode="&#x2000;" horiz-adv-x="843" />
<glyph unicode="&#x2001;" horiz-adv-x="1687" />
<glyph unicode="&#x2002;" horiz-adv-x="843" />
<glyph unicode="&#x2003;" horiz-adv-x="1687" />
<glyph unicode="&#x2004;" horiz-adv-x="561" />
<glyph unicode="&#x2005;" horiz-adv-x="421" />
<glyph unicode="&#x2006;" horiz-adv-x="280" />
<glyph unicode="&#x2007;" horiz-adv-x="280" />
<glyph unicode="&#x2008;" horiz-adv-x="210" />
<glyph unicode="&#x2009;" horiz-adv-x="335" />
<glyph unicode="&#x200a;" horiz-adv-x="92" />
<glyph unicode="&#x2010;" horiz-adv-x="567" d="M82 504v213h403v-213h-403z" />
<glyph unicode="&#x2011;" horiz-adv-x="567" d="M82 504v213h403v-213h-403z" />
<glyph unicode="&#x2012;" horiz-adv-x="567" d="M82 504v213h403v-213h-403z" />
<glyph unicode="&#x2013;" horiz-adv-x="614" d="M0 504v213h614v-213h-614z" />
<glyph unicode="&#x2014;" horiz-adv-x="1024" d="M0 504v213h1024v-213h-1024z" />
<glyph unicode="&#x2018;" horiz-adv-x="407" d="M82 1055l129 379h115v-379h-244z" />
<glyph unicode="&#x2019;" horiz-adv-x="407" d="M82 1055v379h244l-129 -379h-115z" />
<glyph unicode="&#x201a;" horiz-adv-x="407" d="M82 -174v379h244l-129 -379h-115z" />
<glyph unicode="&#x201c;" horiz-adv-x="714" d="M82 1055l129 379h115v-379h-244zM389 1055l129 379h115v-379h-244z" />
<glyph unicode="&#x201d;" horiz-adv-x="714" d="M82 1055v379h244l-129 -379h-115zM389 1055v379h244l-129 -379h-115z" />
<glyph unicode="&#x201e;" horiz-adv-x="714" d="M82 -174v379h244l-129 -379h-115zM389 -174v379h244l-129 -379h-115z" />
<glyph unicode="&#x2022;" horiz-adv-x="536" d="M82 614v68q0 76 34 109.5t113 33.5h78q80 0 114 -33.5t34 -109.5v-68q0 -76 -34 -109.5t-114 -33.5h-78q-80 0 -113.5 33.5t-33.5 109.5z" />
<glyph unicode="&#x2026;" horiz-adv-x="1118" d="M82 0v252h244v-252h-244zM436 0v252h244v-252h-244zM793 0v252h243v-252h-243z" />
<glyph unicode="&#x202f;" horiz-adv-x="335" />
<glyph unicode="&#x2039;" horiz-adv-x="600" d="M82 475v254l436 426v-297l-239 -227v-60l239 -225v-297z" />
<glyph unicode="&#x203a;" horiz-adv-x="600" d="M82 49v297l240 225v60l-240 227v297l436 -426v-254z" />
<glyph unicode="&#x205f;" horiz-adv-x="421" />
<glyph unicode="&#x20ac;" d="M53 477v213h72v72h-72v213h72v227q0 57 12.5 102.5t48 76t99 47t166.5 16.5q100 0 164.5 -16.5t100.5 -47t49 -75.5t13 -103v-162h-252v117q0 37 -17 51.5t-58 14.5q-39 0 -57.5 -14.5t-18.5 -51.5v-182h151v-213h-151v-72h151v-213h-151v-201q0 -37 18.5 -51t57.5 -14 q41 0 58 14.5t17 50.5v132h252v-177q0 -57 -13 -102t-49 -75.5t-100.5 -47t-164.5 -16.5q-102 0 -166 16.5t-99.5 47t-48 75.5t-12.5 102v246h-72z" />
<glyph unicode="&#x2122;" horiz-adv-x="968" d="M68 1288v146h335v-146h-90v-446h-151v446h-94zM436 842v592h217l23 -215h16l23 215h215v-592h-148v211h-10l-29 -211h-116l-33 211h-10v-211h-148z" />
<glyph unicode="&#xe000;" horiz-adv-x="1085" d="M0 1085h1085v-1085h-1085v1085z" />
<glyph unicode="&#xfb01;" horiz-adv-x="954" d="M622 0v1085h240v-1085h-240zM622 1208v164h240v-164h-240zM20 868v217h119v103q0 117 65.5 181.5t203.5 64.5h102v-217h-86q-45 0 -45 -48v-84h131v-217h-131v-868h-240v868h-119z" />
<glyph unicode="&#xfb02;" horiz-adv-x="952" d="M622 0v1434h238v-1434h-238zM20 868v217h119v103q0 117 65.5 181.5t203.5 64.5h102v-217h-86q-45 0 -45 -48v-84h131v-217h-131v-868h-240v868h-119z" />
<glyph unicode="&#xfb03;" horiz-adv-x="1484" d="M1153 0v1085h240v-1085h-240zM1153 1208v164h240v-164h-240zM550 868v217h119v103q0 117 65.5 181.5t203.5 64.5h102v-217h-86q-45 0 -45 -48v-84h131v-217h-131v-868h-240v868h-119zM20 868v217h119v103q0 117 65.5 181.5t203.5 64.5h102v-217h-86q-45 0 -45 -48v-84 h131v-217h-131v-868h-240v868h-119z" />
<glyph unicode="&#xfb04;" horiz-adv-x="1482" d="M1153 0v1434h238v-1434h-238zM550 868v217h119v103q0 117 65.5 181.5t203.5 64.5h102v-217h-86q-45 0 -45 -48v-84h131v-217h-131v-868h-240v868h-119zM20 868v217h119v103q0 117 65.5 181.5t203.5 64.5h102v-217h-86q-45 0 -45 -48v-84h131v-217h-131v-868h-240v868 h-119z" />
</font>
</defs>
</svg>
